<?xml version="1.0" encoding="UTF-8"?>
<svg version="1.1" xmlns="http://www.w3.org/2000/svg" width="800" height="122">
<path d="M0 0 C2.84570312 1.27172852 2.84570312 1.27172852 5.78125 2.87890625 C6.8647876 3.46687988 7.9483252 4.05485352 9.06469727 4.66064453 C10.76517212 5.60206299 10.76517212 5.60206299 12.5 6.5625 C13.6702391 7.20472451 14.8407316 7.84648752 16.01147461 8.48779297 C18.30528313 9.74807787 20.59693327 11.01230049 22.88623047 12.28076172 C25.5093484 13.72909138 28.14226736 15.15465875 30.78515625 16.56640625 C32.04474843 17.25172709 33.30391648 17.93782851 34.5625 18.625 C35.61566406 19.19476562 36.66882813 19.76453125 37.75390625 20.3515625 C40 22 40 22 40.83984375 24.2109375 C40.89269531 24.80132813 40.94554688 25.39171875 41 26 C38.85961914 27.16381836 38.85961914 27.16381836 36 28 C33.23608398 27.05297852 33.23608398 27.05297852 30.24609375 25.37890625 C29.14330078 24.77240234 28.04050781 24.16589844 26.90429688 23.54101562 C25.76025391 22.88810547 24.61621094 22.23519531 23.4375 21.5625 C22.32052734 20.94439453 21.20355469 20.32628906 20.05273438 19.68945312 C15.5377851 17.17940306 11.05138774 14.65198646 6.66064453 11.92919922 C5.6086084 11.28096191 4.55657227 10.63272461 3.47265625 9.96484375 C2.5381665 9.37179443 1.60367676 8.77874512 0.64086914 8.16772461 C-2.54866755 6.75739328 -3.73537067 6.87972472 -7 8 C-8.86643566 8.86124686 -10.70113561 9.79300552 -12.5078125 10.7734375 C-13.56887207 11.34626465 -14.62993164 11.9190918 -15.72314453 12.50927734 C-16.84575684 13.12496582 -17.96836914 13.7406543 -19.125 14.375 C-20.84952393 15.31206787 -20.84952393 15.31206787 -22.60888672 16.26806641 C-32.51124594 21.66330147 -42.28950697 27.26729929 -52 33 C-51.24605957 33.40202637 -50.49211914 33.80405273 -49.71533203 34.21826172 C-46.18437582 36.10226256 -42.65438752 37.9880625 -39.125 39.875 C-38.49006622 40.21436584 -37.85513245 40.55373169 -37.20095825 40.90338135 C-28.50067593 45.55626142 -19.83061415 50.25494004 -11.24462891 55.11669922 C-8.51600139 56.65334384 -5.97953535 58.00682155 -3 59 C-0.62905555 58.08525612 -0.62905555 58.08525612 1.91015625 56.60546875 C2.89145508 56.06680176 3.87275391 55.52813477 4.88378906 54.97314453 C5.93276367 54.38388184 6.98173828 53.79461914 8.0625 53.1875 C9.13854492 52.59308105 10.21458984 51.99866211 11.32324219 51.38623047 C13.51564331 50.17354436 15.70559585 48.95642083 17.89306641 47.73486328 C20.64614047 46.19758964 23.4049754 44.67168983 26.16796875 43.15234375 C27.69550741 42.3102493 29.2228606 41.46781829 30.75 40.625 C31.47340576 40.22595459 32.19681152 39.82690918 32.94213867 39.41577148 C36.21762449 37.59614126 39.45400534 35.74215879 42.6328125 33.7578125 C44.23769531 32.76394531 44.23769531 32.76394531 45.875 31.75 C46.77992187 31.16734375 47.68484375 30.5846875 48.6171875 29.984375 C49.40351562 29.65953125 50.18984375 29.3346875 51 29 C52.32 29.66 53.64 30.32 55 31 C55 38.26 55 45.52 55 53 C41.47508617 60.56478231 27.88217488 67.99598792 14.19677734 75.26708984 C11.94721339 76.48653424 9.7337127 77.72818336 7.52587891 79.01806641 C6.38940918 79.6682373 5.25293945 80.3184082 4.08203125 80.98828125 C3.05956299 81.58809814 2.03709473 82.18791504 0.98364258 82.8059082 C-2.61970164 84.2480125 -4.30146357 84.07248111 -8 83 C-10.71875 81.79174805 -10.71875 81.79174805 -13.5 80.26171875 C-14.54236816 79.69404785 -15.58473633 79.12637695 -16.65869141 78.54150391 C-17.76132324 77.92968262 -18.86395508 77.31786133 -20 76.6875 C-21.73258759 75.7398416 -23.46517669 74.79218595 -25.19790649 73.8447876 C-26.9679739 72.87505134 -28.73574904 71.90125524 -30.50292969 70.92626953 C-34.88817776 68.51077056 -39.28566837 66.11814263 -43.68359375 63.72583008 C-47.79226494 61.48972807 -51.8962581 59.24513335 -56 57 C-56 60.63 -56 64.26 -56 68 C-55.14132324 68.26031006 -54.28264648 68.52062012 -53.39794922 68.78881836 C-49.90158907 70.03507807 -46.87378357 71.57351204 -43.6328125 73.37890625 C-43.04032211 73.70742081 -42.44783173 74.03593536 -41.83738708 74.37440491 C-40.57867334 75.07323754 -39.32122593 75.77435532 -38.06497192 76.4776001 C-36.11046324 77.57062946 -34.15141672 78.65510708 -32.19116211 79.73779297 C-26.66511438 82.79639673 -21.15830453 85.87158734 -15.74609375 89.12890625 C-15.0195459 89.56066162 -14.29299805 89.99241699 -13.54443359 90.43725586 C-12.26698788 91.2028106 -10.99934268 91.98508488 -9.74462891 92.78735352 C-7.02022019 94.41351717 -5.4441009 95.069351 -2.2734375 94.57421875 C2.54699368 92.25604003 7.25082648 89.76458747 11.9375 87.1875 C13.50431519 86.33430176 13.50431519 86.33430176 15.1027832 85.46386719 C20.60415342 82.45644597 26.07434648 79.39998371 31.515625 76.28515625 C32.55211182 75.69259033 33.58859863 75.10002441 34.65649414 74.48950195 C36.64140017 73.35035935 38.62252705 72.20460022 40.59936523 71.05151367 C41.49856689 70.53435791 42.39776855 70.01720215 43.32421875 69.484375 C44.10885498 69.02772461 44.89349121 68.57107422 45.7019043 68.10058594 C48.16658768 66.92021914 50.29013791 66.32784935 53 66 C53.66 66.33 54.32 66.66 55 67 C55 74.59 55 82.18 55 90 C53.24558594 90.93199219 51.49117188 91.86398438 49.68359375 92.82421875 C36.79576789 99.68927286 23.96281984 106.62149765 11.28686523 113.8737793 C9.58774761 114.84485995 7.88591704 115.81121846 6.18066406 116.77148438 C4.33964414 117.80865547 2.50849476 118.86331832 0.6796875 119.921875 C-2.53028077 121.21334912 -3.70759041 120.89059236 -7 120 C-9.32983398 118.9753418 -9.32983398 118.9753418 -11.74609375 117.69921875 C-12.65528564 117.22242676 -13.56447754 116.74563477 -14.5012207 116.25439453 C-15.47019287 115.73731934 -16.43916504 115.22024414 -17.4375 114.6875 C-18.44578857 114.15495605 -19.45407715 113.62241211 -20.49291992 113.07373047 C-27.62070827 109.29729397 -34.72369964 105.4740808 -41.8125 101.625 C-42.68769287 101.15022217 -43.56288574 100.67544434 -44.46459961 100.1862793 C-46.14226076 99.26881587 -47.81523183 98.34271312 -49.48291016 97.40722656 C-51.26183732 96.41268377 -53.05475335 95.44296909 -54.85693359 94.49121094 C-55.7742627 93.9862207 -56.6915918 93.48123047 -57.63671875 92.9609375 C-58.47291748 92.51282715 -59.30911621 92.0647168 -60.1706543 91.60302734 C-62 90 -62 90 -62.27270508 87.31494141 C-62.1827124 86.55101074 -62.09271973 85.78708008 -62 85 C-59 84 -59 84 -56.91308594 84.78173828 C-56.11161133 85.20696777 -55.31013672 85.63219727 -54.484375 86.0703125 C-53.11841187 86.78767578 -53.11841187 86.78767578 -51.72485352 87.51953125 C-50.74315186 88.04933594 -49.7614502 88.57914062 -48.75 89.125 C-47.23007446 89.93130859 -47.23007446 89.93130859 -45.67944336 90.75390625 C-37.27936953 95.23912486 -28.975155 99.89445438 -20.71582031 104.63330078 C-18.151477 106.10292714 -15.57947028 107.55711367 -13 109 C-12.24315918 109.42796875 -11.48631836 109.8559375 -10.70654297 110.296875 C-7.06863199 112.42486953 -7.06863199 112.42486953 -3.00927734 112.71191406 C-0.98752142 111.99557867 0.84057608 111.1709488 2.73828125 110.171875 C3.82846558 109.5996521 3.82846558 109.5996521 4.94067383 109.01586914 C6.11472778 108.38926392 6.11472778 108.38926392 7.3125 107.75 C8.54166138 107.09922485 8.54166138 107.09922485 9.7956543 106.43530273 C17.69427601 102.22265524 25.48511634 97.82100495 33.25708008 93.37988281 C37.78557378 90.7948858 42.29972845 88.25959453 47 86 C47 82.7 47 79.4 47 76 C42.78170957 78.229923 38.56485915 80.46254127 34.34902954 82.69711304 C32.13355216 83.87047062 29.91675932 85.04131723 27.69995117 86.2121582 C21.4293627 89.53102407 15.17273948 92.85089635 9.04296875 96.42578125 C7.81199463 97.14048584 7.81199463 97.14048584 6.55615234 97.86962891 C5.1004973 98.72464805 3.65349357 99.59463728 2.21728516 100.48193359 C0.30078125 101.60546875 0.30078125 101.60546875 -3 103 C-7.32014388 101.69965353 -11.25076276 99.36900027 -15.22265625 97.25390625 C-15.91710342 96.88646805 -16.6115506 96.51902985 -17.32704163 96.14045715 C-19.5736559 94.95053748 -21.81816392 93.7567103 -24.0625 92.5625 C-25.60072767 91.74621689 -27.13897644 90.92997352 -28.67724609 90.11376953 C-39.84443929 84.18081021 -50.94564298 78.14130946 -62 72 C-62 64.08 -62 56.16 -62 48 C-59 47 -59 47 -56.55834961 48.01293945 C-55.59936768 48.54105225 -54.64038574 49.06916504 -53.65234375 49.61328125 C-52.58064941 50.19722656 -51.50895508 50.78117187 -50.40478516 51.3828125 C-48.688479 52.33800781 -48.688479 52.33800781 -46.9375 53.3125 C-45.75617863 53.9605149 -44.57437184 54.60764565 -43.39208984 55.25390625 C-39.92043433 57.15569677 -36.45928204 59.07579035 -33 61 C-32.07880371 61.51224121 -31.15760742 62.02448242 -30.20849609 62.55224609 C-23.56166886 66.25268834 -23.56166886 66.25268834 -21.13647461 67.6262207 C-19.83603337 68.35813801 -18.52487503 69.0713133 -17.20410156 69.76586914 C-15 71 -15 71 -12.31933594 72.85717773 C-9.16433369 74.84249134 -6.63961415 76.15924968 -3 77 C2.26392022 75.67386903 6.4848075 72.95414058 11 70.0625 C12.2676648 69.29980567 13.53829499 68.54201951 14.81176758 67.7890625 C17.35790731 66.27688783 19.88844641 64.74291693 22.40869141 63.18798828 C27.40614754 60.11942171 32.5393106 57.3058784 37.6875 54.5 C38.51185547 54.03859619 39.33621094 53.57719238 40.18554688 53.10180664 C40.93255859 52.68664795 41.67957031 52.27148926 42.44921875 51.84375 C43.09205811 51.48474609 43.73489746 51.12574219 44.3972168 50.75585938 C46 50 46 50 48 50 C47.67 46.37 47.34 42.74 47 39 C46.22624023 39.42708252 45.45248047 39.85416504 44.65527344 40.29418945 C43.56762695 40.89448975 42.47998047 41.49479004 41.359375 42.11328125 C40.7692865 42.43911194 40.179198 42.76494263 39.57122803 43.10064697 C36.304925 44.90388845 33.03739273 46.70484199 29.76757812 48.50170898 C23.75303524 51.80918452 17.74871073 55.12723181 11.796875 58.546875 C10.89098633 59.06209717 9.98509766 59.57731934 9.05175781 60.1081543 C7.38816236 61.05630184 5.73086495 62.01561277 4.08105469 62.98754883 C3.34274414 63.40544678 2.60443359 63.82334473 1.84375 64.25390625 C0.90305664 64.80026733 0.90305664 64.80026733 -0.05664062 65.35766602 C-3.88404291 66.62272825 -6.6998749 65.14126613 -10.21948242 63.48461914 C-11.435045 62.84149562 -12.64685638 62.19124799 -13.85546875 61.53515625 C-14.8382782 61.01134117 -14.8382782 61.01134117 -15.84094238 60.47694397 C-17.95998043 59.34523054 -20.07381084 58.20416757 -22.1875 57.0625 C-23.63951612 56.28394377 -25.0917466 55.50578719 -26.54418945 54.72802734 C-36.75089128 49.25303303 -46.93885282 43.73902123 -57 38 C-58.46373047 37.28457031 -58.46373047 37.28457031 -59.95703125 36.5546875 C-60.96830078 35.78511719 -60.96830078 35.78511719 -62 35 C-62.3125 32.3125 -62.3125 32.3125 -62 30 C-51.24920149 23.86132653 -40.38774565 17.94447694 -29.46435547 12.1184082 C-24.73531088 9.58823419 -20.02280047 7.06007935 -15.4296875 4.2890625 C-14.4708667 3.71297241 -14.4708667 3.71297241 -13.49267578 3.12524414 C-11.89712039 2.15221911 -10.31499609 1.1572579 -8.734375 0.16015625 C-5.26577378 -1.31152169 -3.64205252 -0.85895362 0 0 Z " fill="#FF3520" transform="translate(62,1)"/>
<path d="M0 0 C5.61 0 11.22 0 17 0 C17 12.54 17 25.08 17 38 C19.64 36.02 22.28 34.04 25 32 C33.12000521 27.27701097 41.85859647 26.62893369 50.95703125 28.66015625 C60.89553945 31.8710589 67.61021889 37.37040765 72.80859375 46.375 C77.34040905 56.35985207 77.72019348 68.44449133 74.03515625 78.796875 C69.94326354 87.50565797 62.70490162 94.75387433 53.8125 98.4375 C43.51999544 101.72597656 33.62769642 100.79088868 24 96 C21.50064763 94.46025936 19.29861707 92.83889366 17 91 C17 93.64 17 96.28 17 99 C11.39 99 5.78 99 0 99 C0 66.33 0 33.66 0 0 Z M19.9375 51.625 C16.32711204 57.9140629 16.2506706 63.87716099 17 71 C19.21831047 76.87253976 23.24194805 80.97772989 28.7421875 83.9375 C34.22388709 86.40316407 39.20307284 86.50904136 45 85 C51.47182299 82.1088076 56.28965215 77.63170219 59 71 C59.66326407 64.33290401 60.07304042 57.61798679 56 52 C51.84391691 47.01270029 47.04316983 43.71466832 40.61328125 42.578125 C32.48460968 42.11873383 24.86089691 44.96143694 19.9375 51.625 Z " fill="#1A3038" transform="translate(452,6)"/>
<path d="M0 0 C5.28 0 10.56 0 16 0 C16 32.67 16 65.34 16 99 C10.72 99 5.44 99 0 99 C-0.495 95.04 -0.495 95.04 -1 91 C-1.4846875 91.39832031 -1.969375 91.79664062 -2.46875 92.20703125 C-12.22465505 99.91794851 -20.89994229 101.04060496 -33 100 C-42.05493605 98.17440806 -49.48791563 92.0995136 -54.66796875 84.578125 C-59.64820327 75.40631479 -61.17973276 65.209587 -59 55 C-55.09455866 42.84638718 -49.23426834 36.01382443 -38 30 C-28.9312534 26.24342066 -18.88620318 27.36264222 -10 31 C-7.82075179 32.19743954 -5.99506883 33.49153332 -4 35 C-3.01 35.66 -2.02 36.32 -1 37 C-0.67 24.79 -0.34 12.58 0 0 Z M-37.8125 49.8125 C-41.81278699 55.64148962 -43.99358119 60.86799254 -43 68 C-41.65543563 73.628409 -39.49916323 77.23325869 -35 81 C-34.13375 81.7425 -33.2675 82.485 -32.375 83.25 C-27.10399916 85.98311154 -21.54220345 86.72998112 -15.6875 85.5234375 C-9.37512733 83.34758177 -5.44030783 80.18209178 -2.1875 74.3125 C0.77432736 67.94971 0.95836237 62.57466074 -1 55.875 C-3.32854062 50.33085566 -8.09295541 46.40436937 -13.42578125 43.828125 C-22.72097779 40.8378645 -31.05302586 43.05302586 -37.8125 49.8125 Z " fill="#1A3038" transform="translate(211,6)"/>
<path d="M0 0 C2.5 1.9375 2.5 1.9375 4.5 3.9375 C4.83 1.6275 5.16 -0.6825 5.5 -3.0625 C11.11 -3.0625 16.72 -3.0625 22.5 -3.0625 C22.5 19.7075 22.5 42.4775 22.5 65.9375 C16.89 65.9375 11.28 65.9375 5.5 65.9375 C5.005 61.9775 5.005 61.9775 4.5 57.9375 C4.0875 58.33582031 3.675 58.73414063 3.25 59.14453125 C-4.67079913 66.41115724 -12.11873643 67.66149758 -22.5859375 67.28125 C-31.73685822 66.47757632 -38.32468539 62.64402447 -44.5 55.9375 C-51.03210069 48.10194158 -54.23421231 38.83883505 -53.84375 28.60546875 C-52.46742974 17.9233467 -48.6769675 9.16151527 -40.3984375 2.16015625 C-28.47005244 -6.45947183 -12.69487598 -8.22701914 0 0 Z M-31.875 17.375 C-36.46100945 23.28197957 -37.35825375 28.54331389 -36.5 35.9375 C-34.88925701 42.29891534 -31.94903776 46.17526913 -26.5 49.78125 C-20.3633321 53.32901113 -15.31647922 53.25393952 -8.5 51.9375 C-2.6192098 49.9772366 0.9443406 45.85350402 4.5 40.9375 C7.39529704 34.76925848 7.15440503 29.22124744 4.9375 22.875 C2.43207572 17.03789449 -1.1787334 13.5113028 -6.890625 10.8046875 C-16.39242647 7.64690318 -25.26364834 10.07861672 -31.875 17.375 Z " fill="#1A3038" transform="translate(419.5,39.0625)"/>
<path d="M0 0 C1.2684375 0.9590625 1.2684375 0.9590625 2.5625 1.9375 C3.5525 2.5975 4.5425 3.2575 5.5625 3.9375 C5.8925 1.6275 6.2225 -0.6825 6.5625 -3.0625 C11.8425 -3.0625 17.1225 -3.0625 22.5625 -3.0625 C22.5625 19.7075 22.5625 42.4775 22.5625 65.9375 C17.2825 65.9375 12.0025 65.9375 6.5625 65.9375 C6.0675 61.9775 6.0675 61.9775 5.5625 57.9375 C5.0778125 58.33582031 4.593125 58.73414063 4.09375 59.14453125 C-5.656242 66.85077493 -14.34186189 67.98876925 -26.4375 66.9375 C-35.01466458 65.12638557 -42.06864793 59.79357701 -47.0390625 52.62890625 C-53.12733137 42.07234648 -54.61774358 30.09386942 -51.45703125 18.26953125 C-47.37011628 8.14655726 -40.98616739 1.26779444 -30.9140625 -3.17578125 C-20.57405224 -6.61701495 -9.28255156 -6.11960806 0 0 Z M-31.25 16.6875 C-35.17158701 22.51385784 -37.2008367 27.81302416 -36.4375 34.9375 C-35.00806209 41.42792077 -31.78214998 46.00425274 -26.4375 49.9375 C-20.35232366 53.22281784 -14.08370395 53.80218731 -7.4375 51.9375 C-1.03300642 48.93602103 2.66365669 45.33911231 5.5625 38.9375 C7.45590495 33.25728516 7.48381907 27.19648331 5 21.6875 C1.69630419 15.90017471 -3.13072537 12.01458147 -9.4375 9.9375 C-18.3751494 8.7885645 -24.80733647 10.38800677 -31.25 16.6875 Z " fill="#1A3038" transform="translate(287.4375,39.0625)"/>
<path d="M0 0 C5.61 0 11.22 0 17 0 C17.33 17.82 17.66 35.64 18 54 C23.92942774 48.66351504 28.31696546 44.70683033 33.14819336 38.87329102 C37.72272136 33.55255865 41.40409149 29.76071969 48.6328125 29.0390625 C53.79653179 28.90783655 58.88780402 29.27981634 64 30 C57.16997435 38.11303004 49.82221874 45.5612803 41.76171875 52.4609375 C39.38847084 54.53424056 37.19312738 56.73833739 35 59 C36.28923981 61.78823237 37.68619531 63.98996602 39.72265625 66.28515625 C40.52388916 67.19672485 40.52388916 67.19672485 41.34130859 68.12670898 C42.19329834 69.08492554 42.19329834 69.08492554 43.0625 70.0625 C47.81982588 75.47607672 52.46046441 80.94722487 56.98828125 86.5546875 C59.4953993 89.60217468 62.11863508 92.53302375 64.78515625 95.44140625 C66 97 66 97 66 99 C49.55267991 101.21374697 49.55267991 101.21374697 43.921875 97.70507812 C40.13756117 94.27251142 37.22909081 90.19275522 34.37109375 85.97998047 C32.36004387 83.07584683 30.09745322 80.44349708 27.8125 77.75 C25.73754869 75.20924329 23.82099832 72.73149748 22 70 C20.02 70.495 20.02 70.495 18 71 C17.67 80.24 17.34 89.48 17 99 C11.39 99 5.78 99 0 99 C0 66.33 0 33.66 0 0 Z " fill="#1B3039" transform="translate(683,6)"/>
<path d="M0 0 C5.13882352 3.62463582 8.97267556 6.93914464 11 13 C9.2335343 14.0076952 7.46166177 15.00591714 5.6875 16 C4.20830078 16.8353125 4.20830078 16.8353125 2.69921875 17.6875 C0 19 0 19 -3 19 C-4.23959407 17.49943875 -5.47690487 15.99670905 -6.6875 14.47265625 C-8.61530297 12.30961542 -10.17635834 11.60506607 -13 11 C-18.0511244 11.21861921 -18.0511244 11.21861921 -22 14 C-22.50010524 16.95769177 -22.50010524 16.95769177 -22 20 C-18.80216189 23.13451458 -15.09444577 24.05186476 -10.875 25.3125 C-1.84735175 28.17193114 6.30410918 31.26418536 11 40 C11.53125 43.65625 11.53125 43.65625 11.5 47.5 C11.5103125 48.7684375 11.520625 50.036875 11.53125 51.34375 C10.73138573 56.84869823 8.15248682 59.87370606 4.25 63.6875 C-4.05421034 69.59626505 -11.99833811 69.94095973 -22 69 C-28.72347043 67.42167869 -34.40318124 64.18419004 -39 59 C-42 53.96774194 -42 53.96774194 -42 51 C-40.04414675 49.99515796 -38.08523763 48.99626195 -36.125 48 C-35.03445313 47.443125 -33.94390625 46.88625 -32.8203125 46.3125 C-30 45 -30 45 -28 45 C-27.29875 46.093125 -26.5975 47.18625 -25.875 48.3125 C-23.0058131 52.48509334 -19.93918356 54.07814845 -15 55 C-11.25581839 54.92799651 -9.59644869 54.42821957 -6.5625 52.25 C-4.75639346 50.10576089 -4.75639346 50.10576089 -5 47.4375 C-6.25671814 44.37424954 -7.17059225 43.73501418 -10 42 C-12.87552021 40.92614964 -15.81087253 40.06914864 -18.75 39.1875 C-26.70872938 36.6574468 -32.82023611 34.17344011 -38 27.375 C-39.72554248 21.55129414 -40.25984492 15.40998026 -38.12109375 9.62109375 C-34.69461273 3.66150464 -30.00136457 0.18921992 -23.6875 -2.3125 C-15.53295002 -3.83283983 -7.58951069 -3.63238071 0 0 Z " fill="#1A3038" transform="translate(789,37)"/>
<path d="M0 0 C1.34997888 0.9774123 2.68894908 1.97096003 4 3 C3.46324097 6.85103301 1.88399077 8.31797587 -1.0625 10.75 C-2.16271484 11.67039062 -2.16271484 11.67039062 -3.28515625 12.609375 C-3.85105469 13.06828125 -4.41695312 13.5271875 -5 14 C-5.66 13.731875 -6.32 13.46375 -7 13.1875 C-7.99 12.795625 -8.98 12.40375 -10 12 C-11.19625 11.46375 -12.3925 10.9275 -13.625 10.375 C-20.66930741 7.80621121 -27.51225112 7.97712252 -34.375 11 C-39.76744904 14.00914088 -42.85592081 18.13965539 -44.60546875 24.04296875 C-45.83049341 30.11957621 -45.06429815 35.65377769 -42 41 C-37.11430015 46.73875855 -31.05230557 49.46478983 -23.6875 50.4375 C-19.33849625 49.9215165 -15.70061739 48.59236712 -11.6484375 46.97265625 C-6.54395593 45.09800151 -6.54395593 45.09800151 -4 45 C-1.76171875 46.87109375 -1.76171875 46.87109375 0.3125 49.4375 C1.00988281 50.28183594 1.70726562 51.12617187 2.42578125 51.99609375 C2.94527344 52.65738281 3.46476563 53.31867188 4 54 C0.48432207 56.99027219 -2.97981873 59.16685399 -7.125 61.1875 C-8.15882813 61.69667969 -9.19265625 62.20585938 -10.2578125 62.73046875 C-18.84813674 66.70747071 -31.17436388 66.41317367 -40.125 63.375 C-49.6329351 59.21072827 -56.98139361 52.59287257 -60.8125 42.8125 C-64.248913 31.77980562 -63.86790027 21.6493475 -59 11 C-52.6091505 1.75900741 -44.78543038 -3.85372473 -33.9296875 -6.5 C-21.51181416 -8.61931705 -10.77535076 -6.27166357 0 0 Z " fill="#1A3038" transform="translate(673,41)"/>
<path d="M0 0 C5.28 0 10.56 0 16 0 C16 6.93 16 13.86 16 21 C21.61 21 27.22 21 33 21 C33 25.29 33 29.58 33 34 C25.08 34.495 25.08 34.495 17 35 C16.9539455 39.59009804 16.91416386 44.17938579 16.89013672 48.76953125 C16.88011443 50.32912929 16.86649295 51.8887087 16.84912109 53.44824219 C16.8247059 55.69731254 16.8134791 57.94613322 16.8046875 60.1953125 C16.79436493 60.8861795 16.78404236 61.57704651 16.77340698 62.28884888 C16.77242891 66.56361336 17.2998693 70.06634963 19 74 C23.54601728 76.27300864 30.08679597 75.68734156 35 76 C35 80.62 35 85.24 35 90 C26.23909336 91.75218133 16.05176846 92.61028678 8 88 C3.23326384 83.93183724 0.34972746 79.25817932 -0.17411804 72.87998962 C-0.23059906 70.39933505 -0.22489191 67.92643314 -0.1953125 65.4453125 C-0.1924826 64.54376434 -0.18965271 63.64221619 -0.18673706 62.71334839 C-0.17559439 59.85042724 -0.1505008 56.98782566 -0.125 54.125 C-0.11496255 52.17708787 -0.10583804 50.22917081 -0.09765625 48.28125 C-0.07567443 43.5207113 -0.0411855 38.76040973 0 34 C-3.96 34 -7.92 34 -12 34 C-12 29.71 -12 25.42 -12 21 C-8.37 20.67 -4.74 20.34 -1 20 C-0.67 13.4 -0.34 6.8 0 0 Z " fill="#1A3038" transform="translate(330,15)"/>
<path d="M0 0 C0 5.61 0 11.22 0 17 C-2.475 17.0928125 -2.475 17.0928125 -5 17.1875 C-10.77529115 17.74496054 -14.75050153 18.9963286 -19 23 C-22.66622088 28.89198106 -23.59898657 34.58994035 -23.609375 41.41015625 C-23.62591125 42.26306747 -23.64244751 43.1159787 -23.65948486 43.99473572 C-23.70756346 46.68406662 -23.72924529 49.3728339 -23.75 52.0625 C-23.77819341 53.90041838 -23.80812548 55.73831095 -23.83984375 57.57617188 C-23.91654408 62.0510305 -23.95743386 66.52417011 -24 71 C-29.61 71 -35.22 71 -41 71 C-41 48.23 -41 25.46 -41 2 C-35.72 2 -30.44 2 -25 2 C-24.67 4.64 -24.34 7.28 -24 10 C-23.319375 9.2575 -22.63875 8.515 -21.9375 7.75 C-15.39700315 1.22803147 -9.07151707 0 0 0 Z " fill="#1A3038" transform="translate(577,34)"/>
<path d="M0 0 C5.61 0 11.22 0 17 0 C17 22.77 17 45.54 17 69 C11.39 69 5.78 69 0 69 C0 46.23 0 23.46 0 0 Z " fill="#1A3038" transform="translate(585,36)"/>
<path d="M0 0 C3.99062431 2.48472834 5.68655935 3.96748964 7.0625 8.5 C6.99143971 12.47937614 6.58428621 13.99889343 4 17 C0.78597162 19.14268559 -1.18954927 20 -5.0625 20 C-8.92940514 18.68360676 -10.60161784 17.31541064 -13 14 C-14.00454758 9.67607779 -13.51321435 6.83176119 -11.1875 3.0625 C-7.74390783 -0.18431547 -4.59448491 -0.54052764 0 0 Z " fill="#1A3038" transform="translate(597,6)"/>
</svg>
