<?xml version="1.0" encoding="UTF-8"?>
<svg version="1.1" xmlns="http://www.w3.org/2000/svg" width="1600" height="176">
<path d="M0 0 C4.53422898 2.06746645 7.75764604 5.12299004 11.140625 8.73046875 C12.83945 10.51100939 14.64951619 11.96448351 16.68359375 13.34765625 C21.30669335 11.37698015 24.45438202 7.96071505 28.05078125 4.5390625 C33.9520204 -0.37279976 38.92924905 -1.33445683 46.44921875 -1.11328125 C55.28428869 0.14582292 61.40378719 7.6967699 67.65234375 13.5625 C70.35608722 16.08010377 73.17082275 18.41668617 76.05859375 20.72265625 C81.14242394 24.81182401 85.90909859 29.17931004 90.64990234 33.65576172 C94.07715554 36.88711477 97.57124635 39.99069585 101.20043945 42.99462891 C105.16873911 46.61476334 105.90657327 50.57291658 106.18359375 55.72265625 C105.91830308 63.00341134 103.27491809 66.78872346 98.18359375 71.81640625 C94.5951746 75.12572613 90.90831579 78.30529878 87.19140625 81.46875 C86.46695313 82.08878906 85.7425 82.70882812 84.99609375 83.34765625 C84.03123047 84.15203125 84.03123047 84.15203125 83.046875 84.97265625 C81.44890235 86.26165256 81.44890235 86.26165256 81.68359375 88.34765625 C83.47776662 90.15079999 85.28505069 91.84819099 87.18359375 93.53515625 C87.72951172 94.02983398 88.27542969 94.52451172 88.83789062 95.03417969 C91.89618291 97.7952881 95.01517671 100.46330951 98.18359375 103.09765625 C103.42216317 107.72505924 105.8549782 111.64230923 106.30859375 118.72265625 C105.96514816 125.73467045 103.26377159 129.97641065 98.20263672 134.7421875 C94.69742668 137.89116434 91.07103877 140.88690304 87.43359375 143.88085938 C84.88105153 146.02032278 82.44037456 148.27349412 79.99609375 150.53515625 C75.5959554 154.57399292 71.04446746 158.36375278 66.390625 162.10546875 C62.78230326 165.09417969 59.37191792 168.27695423 55.97265625 171.5 C51.94182349 174.75355614 48.37022268 175.63835145 43.24609375 175.66015625 C42.33988281 175.67691406 41.43367188 175.69367188 40.5 175.7109375 C34.00460738 174.87311293 29.55418276 170.82059911 24.80859375 166.66015625 C23.91914063 165.89348633 23.91914063 165.89348633 23.01171875 165.11132812 C21.56423199 163.86228713 20.12323082 162.60573671 18.68359375 161.34765625 C14.18416958 162.78225526 11.55606799 165.08886092 8.18359375 168.34765625 C3.12391468 173.23678434 -0.52092473 175.6197911 -7.62890625 175.72265625 C-8.51191406 175.75101563 -9.39492188 175.779375 -10.3046875 175.80859375 C-17.75380016 174.66852203 -22.9180778 170.31081347 -28.12890625 165.16015625 C-29.35169949 163.98700633 -30.57698155 162.81644527 -31.8046875 161.6484375 C-32.40104004 161.0807666 -32.99739258 160.5130957 -33.61181641 159.92822266 C-35.92365713 157.78458804 -38.35051265 155.81090093 -40.81640625 153.84765625 C-45.8655372 149.80685767 -50.58422376 145.47609649 -55.28320312 141.0390625 C-58.71105939 137.80719802 -62.20575733 134.70175196 -65.83325195 131.69458008 C-69.1046677 128.72364992 -70.15099865 125.8487302 -70.62890625 121.51171875 C-70.87642035 115.24651804 -70.68369376 111.16287069 -66.31640625 106.34765625 C-60.20854804 99.76044714 -53.38956711 93.87356317 -46.31640625 88.34765625 C-47.8734175 84.45512813 -50.33074731 82.28622648 -53.44140625 79.53515625 C-54.42367187 78.65730469 -55.4059375 77.77945313 -56.41796875 76.875 C-58.16795689 75.34906695 -59.93020603 73.83682288 -61.71484375 72.3515625 C-66.49372556 68.3632392 -69.90666511 65.25775746 -70.58984375 58.73828125 C-70.8160695 52.29954844 -70.26568497 47.78428017 -65.9453125 42.75 C-61.79374565 38.37940565 -57.09594759 34.70336438 -52.40625 30.93359375 C-48.90248328 28.054811 -45.61544859 24.95649893 -42.31640625 21.84765625 C-36.5200025 16.39212438 -30.5349267 11.32039631 -24.31640625 6.34765625 C-23.16782131 5.37171874 -22.02145822 4.39314984 -20.87890625 3.41015625 C-14.70745291 -1.55711107 -7.63711341 -2.15075538 0 0 Z M-14.25390625 16.78515625 C-20.04833396 22.21362011 -20.04833396 22.21362011 -22.31640625 23.34765625 C-21.02217663 27.23034511 -19.12391065 28.37501167 -15.94140625 30.91015625 C-14.96429688 31.69519531 -13.9871875 32.48023437 -12.98046875 33.2890625 C-11.14256301 34.70926239 -9.24899692 36.05926247 -7.31640625 37.34765625 C-3.02640625 33.38765625 1.26359375 29.42765625 5.68359375 25.34765625 C3.66707847 21.3146257 1.42058521 19.00425052 -1.87890625 16.09765625 C-2.38615234 15.63875 -2.89339844 15.17984375 -3.41601562 14.70703125 C-8.8202225 9.87130952 -9.43757328 12.27089294 -14.25390625 16.78515625 Z M39.5234375 14.19140625 C38.58081055 15.07119141 38.58081055 15.07119141 37.61914062 15.96875 C36.63010742 16.89880859 36.63010742 16.89880859 35.62109375 17.84765625 C34.62625977 18.77771484 34.62625977 18.77771484 33.61132812 19.7265625 C31.96667049 21.26473152 30.32421057 22.80517981 28.68359375 24.34765625 C31.8613648 27.57058213 35.0994711 30.66910048 38.49609375 33.66015625 C39.28628906 34.35753906 40.07648438 35.05492188 40.890625 35.7734375 C41.77814453 36.55267578 41.77814453 36.55267578 42.68359375 37.34765625 C47.79496098 33.68926651 52.34656453 29.90153693 56.68359375 25.34765625 C55.11715927 21.33308166 52.27972043 18.88015965 49.12109375 16.09765625 C48.61384766 15.63875 48.10660156 15.17984375 47.58398438 14.70703125 C43.48915793 10.84475324 43.48915793 10.84475324 39.5234375 14.19140625 Z M-39.25390625 38.78515625 C-44.03263877 43.24514643 -48.97159408 47.38210172 -54.1015625 51.4375 C-56.50107657 53.33452794 -56.50107657 53.33452794 -58.31640625 56.34765625 C-46.31429535 68.29709891 -46.31429535 68.29709891 -32.31640625 77.34765625 C-31.39859375 76.49042969 -30.48078125 75.63320312 -29.53515625 74.75 C-28.29568171 73.59493533 -27.05609083 72.43999549 -25.81640625 71.28515625 C-25.17944824 70.69041504 -24.54249023 70.09567383 -23.88623047 69.48291016 C-19.88563285 65.7608802 -15.82712961 62.14920273 -11.57421875 58.71484375 C-9.97787798 57.28931839 -9.97787798 57.28931839 -10.31640625 54.34765625 C-11.47806071 52.84704636 -11.47806071 52.84704636 -13.09765625 51.45703125 C-13.68901367 50.91522217 -14.28037109 50.37341309 -14.88964844 49.81518555 C-15.52547852 49.24840088 -16.16130859 48.68161621 -16.81640625 48.09765625 C-17.45481445 47.51862549 -18.09322266 46.93959473 -18.75097656 46.34301758 C-20.02126152 45.19373516 -21.29496517 44.04821868 -22.57226562 42.90673828 C-24.0421161 41.59284338 -25.50087994 40.26656118 -26.95703125 38.9375 C-32.55552029 33.88849229 -33.45511854 33.31915406 -39.25390625 38.78515625 Z M11.55859375 38.91015625 C8.18261475 42.0427765 4.79639511 45.15159477 1.30859375 48.16015625 C-1.70173082 50.77405947 -4.54134376 53.48587306 -7.31640625 56.34765625 C-1.25672685 61.9078393 4.92255604 67.25318281 11.3359375 72.40234375 C13.23538311 73.97626041 14.9843983 75.56434221 16.68359375 77.34765625 C20.57378766 75.74364265 23.30959957 73.0827364 26.30859375 70.22265625 C31.55269551 65.3093588 36.99289956 60.7415772 42.68359375 56.34765625 C35.0896956 48.65640043 27.10692688 41.12294594 18.68359375 34.34765625 C15.40267581 34.34765625 13.8924228 36.72909874 11.55859375 38.91015625 Z M62.05859375 39.41015625 C60.97334394 40.42391377 59.88740516 41.43693423 58.80078125 42.44921875 C58.26936523 42.94583008 57.73794922 43.44244141 57.19042969 43.95410156 C54.6494987 46.30400987 52.02937282 48.55993779 49.40234375 50.8125 C47.41820915 52.58469295 45.55001411 54.4525847 43.68359375 56.34765625 C44.57820313 57.10949219 45.4728125 57.87132813 46.39453125 58.65625 C53.58248323 64.79002216 60.70270423 70.97799669 67.68359375 77.34765625 C71.36315666 75.78533604 73.84875168 73.51181543 76.74609375 70.78515625 C82.21003834 65.72622103 87.86939185 61.00351619 93.68359375 56.34765625 C89.96175777 52.57730472 86.14154059 48.93784585 82.24609375 45.34765625 C81.69888672 44.83976562 81.15167969 44.331875 80.58789062 43.80859375 C71.83563732 34.40839765 71.83563732 34.40839765 62.05859375 39.41015625 Z M-13.69140625 79.22265625 C-16.46704948 81.80313707 -19.15010618 84.23678953 -22.31640625 86.34765625 C-22.31640625 87.00765625 -22.31640625 87.66765625 -22.31640625 88.34765625 C-20.5763869 89.90727226 -18.77337428 91.397152 -16.94140625 92.84765625 C-11.4303303 97.2337322 -11.4303303 97.2337322 -9.31640625 99.34765625 C-5.07975077 99.20705928 -2.45966711 96.04552455 0.43359375 93.28515625 C0.94019531 92.81271484 1.44679688 92.34027344 1.96875 91.85351562 C3.21308988 90.69134914 4.44917439 89.52035464 5.68359375 88.34765625 C4.11715927 84.33308166 1.27972043 81.88015965 -1.87890625 79.09765625 C-2.38615234 78.63875 -2.89339844 78.17984375 -3.41601562 77.70703125 C-8.57969986 73.08653084 -9.03434632 74.88800816 -13.69140625 79.22265625 Z M36.74609375 79.72265625 C35.91948242 80.48449219 35.91948242 80.48449219 35.07617188 81.26171875 C32.91243273 83.25982537 30.76633929 85.26491071 28.68359375 87.34765625 C33.34120261 92.26725561 38.18264296 96.39083199 43.68359375 100.34765625 C48.30359375 96.05765625 52.92359375 91.76765625 57.68359375 87.34765625 C54.47345588 84.13751838 51.31268716 81.04572437 47.93359375 78.03515625 C47.155 77.33777344 46.37640625 76.64039062 45.57421875 75.921875 C41.74130117 72.73041676 39.74454178 76.93664182 36.74609375 79.72265625 Z M-34.31640625 97.34765625 C-36.64932054 99.0647297 -38.73868106 100.78781487 -40.87890625 102.72265625 C-41.49717285 103.26760742 -42.11543945 103.81255859 -42.75244141 104.37402344 C-44.61652143 106.02166386 -46.46756733 107.68294864 -48.31640625 109.34765625 C-49.36425968 110.28291483 -50.4124114 111.21783937 -51.4609375 112.15234375 C-53.7555745 114.20734055 -56.04096901 116.27145085 -58.31640625 118.34765625 C-54.60311182 122.10236289 -50.8096961 125.75306616 -46.94140625 129.34765625 C-46.13316406 130.10949219 -46.13316406 130.10949219 -45.30859375 130.88671875 C-41.52145102 134.40335129 -37.57360441 137.41611727 -33.31640625 140.34765625 C-32.61016113 139.72612671 -32.61016113 139.72612671 -31.88964844 139.09204102 C-28.53608782 136.14104266 -25.16693345 133.21508196 -21.73828125 130.3515625 C-21.11324707 129.82594727 -20.48821289 129.30033203 -19.84423828 128.75878906 C-18.58935178 127.70451695 -17.32998747 126.65554872 -16.06591797 125.61230469 C-11.88092144 122.11129329 -11.88092144 122.11129329 -9.31640625 117.34765625 C-11.97391618 115.0037655 -14.64465207 112.67529158 -17.31640625 110.34765625 C-17.8789209 109.85491211 -18.44143555 109.36216797 -19.02099609 108.85449219 C-20.88628714 107.22254831 -22.75716044 105.59719035 -24.62890625 103.97265625 C-25.23943848 103.43672852 -25.8499707 102.90080078 -26.47900391 102.34863281 C-29.06918486 100.10921301 -31.03513982 98.44141173 -34.31640625 97.34765625 Z M12.24609375 101.28515625 C7.66374807 105.50784108 2.91999867 109.44292776 -1.96875 113.3046875 C-4.12726265 115.1830604 -5.71224872 116.99171532 -7.31640625 119.34765625 C-6.42179687 120.10949219 -5.5271875 120.87132813 -4.60546875 121.65625 C2.58248323 127.79002216 9.70270423 133.97799669 16.68359375 140.34765625 C20.83044407 138.68690309 23.750875 135.68797005 26.93359375 132.66015625 C28.08779594 131.57732957 29.24274281 130.4952961 30.3984375 129.4140625 C30.95772949 128.8895752 31.51702148 128.36508789 32.09326172 127.82470703 C35.22057383 124.92015709 38.44476933 122.12658717 41.68359375 119.34765625 C40.43396576 115.59877227 38.90462389 114.70146306 35.80859375 112.28515625 C30.60412637 108.14879524 25.73482742 103.77758526 20.8984375 99.21875 C16.8899712 95.83240898 15.64396997 98.10474411 12.24609375 101.28515625 Z M62.74609375 101.78515625 C57.96736123 106.24514643 53.02840592 110.38210172 47.8984375 114.4375 C45.49892343 116.33452794 45.49892343 116.33452794 43.68359375 119.34765625 C44.32683594 119.858125 44.97007813 120.36859375 45.6328125 120.89453125 C53.29776022 127.0614792 60.51694934 133.61397287 67.68359375 140.34765625 C71.57378766 138.74364265 74.30959957 136.0827364 77.30859375 133.22265625 C82.55269551 128.3093588 87.99289956 123.7415772 93.68359375 119.34765625 C89.77693086 115.38920048 85.7591698 111.56899769 81.68359375 107.78515625 C81.0803125 107.22119141 80.47703125 106.65722656 79.85546875 106.07617188 C71.79930572 97.27167529 71.79930572 97.27167529 62.74609375 101.78515625 Z M-11.4765625 139.97265625 C-12.41918945 140.78476563 -12.41918945 140.78476563 -13.38085938 141.61328125 C-14.04021484 142.185625 -14.69957031 142.75796875 -15.37890625 143.34765625 C-16.37374023 144.20617187 -16.37374023 144.20617187 -17.38867188 145.08203125 C-19.03315421 146.50172823 -20.67562306 147.92368746 -22.31640625 149.34765625 C-17.70728261 154.88511598 -17.70728261 154.88511598 -12.44140625 159.78515625 C-11.84585938 160.27886719 -11.2503125 160.77257812 -10.63671875 161.28125 C-9.98316406 161.80912109 -9.98316406 161.80912109 -9.31640625 162.34765625 C-4.82531873 160.91904706 -1.85471309 158.41688333 1.49609375 155.22265625 C1.99818359 154.75472656 2.50027344 154.28679687 3.01757812 153.8046875 C4.2454883 152.658638 5.4653759 151.50400314 6.68359375 150.34765625 C3.51632133 147.14107371 0.29880339 144.03335477 -3.06640625 141.03515625 C-3.845 140.33777344 -4.62359375 139.64039063 -5.42578125 138.921875 C-8.40437925 136.44176137 -8.75173164 137.61604578 -11.4765625 139.97265625 Z M37.87109375 141.59765625 C36.99839844 142.3865625 36.12570313 143.17546875 35.2265625 143.98828125 C32.99212062 146.06140398 30.82107518 148.1752975 28.68359375 150.34765625 C30.75323551 152.38439908 32.83719077 154.40129044 34.93359375 156.41015625 C35.52011719 156.99087891 36.10664062 157.57160156 36.7109375 158.16992188 C37.57138672 158.98686523 37.57138672 158.98686523 38.44921875 159.8203125 C38.97290039 160.32828369 39.49658203 160.83625488 40.03613281 161.35961914 C41.65381121 162.55037923 41.65381121 162.55037923 43.69726562 162.16210938 C47.01444939 160.80196618 49.38042437 158.23143456 51.93359375 155.78515625 C52.48789063 155.26501953 53.0421875 154.74488281 53.61328125 154.20898438 C54.97616203 152.9283464 56.33071058 151.63885135 57.68359375 150.34765625 C54.51632133 147.14107371 51.29880339 144.03335477 47.93359375 141.03515625 C47.155 140.33777344 46.37640625 139.64039063 45.57421875 138.921875 C42.02970971 135.97055859 40.95118591 138.80167215 37.87109375 141.59765625 Z " fill="#0045FF" transform="translate(70.31640625,0.65234375)"/>
<path d="M0 0 C8.25 0 16.5 0 25 0 C31.62237989 20.16146765 37.31437698 40.55894185 43 61 C45.95617502 53.88873405 48.49749161 46.70434468 50.85546875 39.375 C51.20257401 38.30628662 51.54967926 37.23757324 51.90730286 36.13647461 C53.00390332 32.75867757 54.09599428 29.37944645 55.1875 26 C56.29036151 22.59220356 57.39419929 19.18473036 58.49983215 15.77783203 C59.18493311 13.66609801 59.86832694 11.55380925 60.54985046 9.44091797 C60.8571962 8.4923291 61.16454193 7.54374023 61.48120117 6.56640625 C61.75115402 5.73052979 62.02110687 4.89465332 62.29924011 4.03344727 C63 2 63 2 64 0 C68.95 0 73.9 0 79 0 C82.19717732 6.86930251 84.72362536 13.80128437 87.07421875 21 C87.44352005 22.11689209 87.81282135 23.23378418 88.1933136 24.38452148 C89.36239531 27.92159621 90.52545209 31.46060878 91.6875 35 C92.86083336 38.56775899 94.03550781 42.13505445 95.21382141 45.70117188 C95.9447218 47.91370964 96.67265671 50.12722961 97.39738464 52.34179688 C97.72475113 53.33373047 98.05211761 54.32566406 98.3894043 55.34765625 C98.82098091 56.66262085 98.82098091 56.66262085 99.26127625 58.00415039 C99.83100823 59.97023899 99.83100823 59.97023899 101 61 C101.21075668 60.25053604 101.42151337 59.50107208 101.63865662 58.72889709 C103.62172259 51.67923899 105.60794761 44.63048246 107.59776211 37.58272648 C108.62072572 33.95904513 109.64244754 30.33502305 110.66137695 26.71020508 C111.64403822 23.21458285 112.62990172 19.71987865 113.61802864 16.22579765 C113.99516985 14.89002364 114.37113974 13.55391837 114.74593925 12.21748543 C115.26953566 10.35123988 115.79761865 8.48625482 116.32592773 6.62133789 C116.6257103 5.55766495 116.92549286 4.493992 117.23435974 3.39808655 C118 1 118 1 119 0 C120.78071246 -0.08726223 122.5648314 -0.10699041 124.34765625 -0.09765625 C125.42724609 -0.09443359 126.50683594 -0.09121094 127.61914062 -0.08789062 C129.32360352 -0.07532227 129.32360352 -0.07532227 131.0625 -0.0625 C132.77276367 -0.05573242 132.77276367 -0.05573242 134.51757812 -0.04882812 C137.34510351 -0.03699747 140.1725264 -0.0205141 143 0 C144 2 144 2 143.05053711 5.40014648 C142.55039265 6.8930254 142.04195524 8.3831398 141.52734375 9.87109375 C141.11584328 11.09081375 141.11584328 11.09081375 140.69602966 12.33517456 C140.09757429 14.10674752 139.49576359 15.87718965 138.89105225 17.64663696 C137.26786684 22.39738676 135.66926576 27.15642524 134.06640625 31.9140625 C133.73278076 32.90193253 133.39915527 33.88980255 133.05541992 34.90760803 C129.41994358 45.6847348 125.89088904 56.49588497 122.375 67.3125 C121.79031074 69.10669843 121.20559461 70.9008881 120.62084961 72.69506836 C117.66677659 81.7736047 114.77631765 90.86523777 112 100 C105.07 100 98.14 100 91 100 C88.07611149 92.92735077 85.57997862 85.83521283 83.328125 78.5234375 C83.00084412 77.47217682 82.67356323 76.42091614 82.33636475 75.33779907 C81.3037889 72.01802848 80.27680422 68.69655973 79.25 65.375 C78.54594358 63.10795777 77.84151997 60.84102954 77.13671875 58.57421875 C75.42023427 53.05078928 73.70832245 47.52595899 72 42 C68.38662159 53.23795443 64.77454387 64.4752691 61.27734375 75.75 C60.9378772 76.84302429 60.9378772 76.84302429 60.59155273 77.95812988 C59.46996008 81.57047744 58.3518746 85.18385628 57.23876953 88.79882812 C56.82727286 90.12634066 56.41565763 91.45381645 56.00390625 92.78125 C55.64111572 93.95751953 55.2783252 95.13378906 54.90454102 96.34570312 C54 99 54 99 53 100 C51.43827255 100.08685603 49.87270656 100.10702219 48.30859375 100.09765625 C47.36435547 100.09443359 46.42011719 100.09121094 45.44726562 100.08789062 C44.45404297 100.07951172 43.46082031 100.07113281 42.4375 100.0625 C41.44041016 100.05798828 40.44332031 100.05347656 39.41601562 100.04882812 C36.94395151 100.03700007 34.47200482 100.02051849 32 100 C23.72845564 75.29903509 15.52072622 50.5793112 7.48193359 25.80151367 C7.20229767 24.93964951 6.92266174 24.07778534 6.634552 23.18980408 C6.11966599 21.60211386 5.60519868 20.01428776 5.09127808 18.42628479 C4.85909576 17.70972214 4.62691345 16.99315948 4.38769531 16.25488281 C4.05155212 15.2144281 4.05155212 15.2144281 3.70861816 14.1529541 C3.20389354 12.6194781 2.68537881 11.0905118 2.15759277 9.56481934 C1.88225708 8.765802 1.60692139 7.96678467 1.32324219 7.14355469 C1.0703241 6.42157898 0.81740601 5.69960327 0.55682373 4.95574951 C0 3 0 3 0 0 Z " fill="#0045FF" transform="translate(403,36)"/>
<path d="M0 0 C61.4986413 0 61.4986413 0 75.8125 13.125 C85.75669915 23.67511809 89.42985716 37.82727008 89.2109375 52.03515625 C88.17179087 66.64093942 84.22586187 79.88341302 73 90 C51.43795045 105.75963754 26.45669927 100 0 100 C0 67 0 34 0 0 Z M23 23 C23 41.15 23 59.3 23 78 C42.62846306 79.14240556 42.62846306 79.14240556 58.4609375 70.8125 C64.14298713 64.12094916 65.36399783 55.70959052 65.28125 47.23828125 C64.60365779 39.43655984 61.74414427 32.35249807 56 27 C45.76393202 21.13661002 45.76393202 21.13661002 23 23 Z " fill="#0045FF" transform="translate(217,36)"/>
<path d="M0 0 C11.364375 -0.020625 22.72875 -0.04125 34.4375 -0.0625 C38.03068115 -0.071604 41.6238623 -0.08070801 45.32592773 -0.09008789 C49.70129395 -0.09460449 49.70129395 -0.09460449 51.74720764 -0.09544373 C53.18133351 -0.096983 54.61545806 -0.10050759 56.04957581 -0.10557556 C58.21723695 -0.11285524 60.38481876 -0.11390734 62.55249023 -0.11352539 C63.77604721 -0.115746 64.99960419 -0.11796661 66.26023865 -0.12025452 C69 0 69 0 70 1 C70 7.93 70 14.86 70 22 C54.49 22 38.98 22 23 22 C23 27.61 23 33.22 23 39 C37.19 39 51.38 39 66 39 C66 46.26 66 53.52 66 61 C51.81 61 37.62 61 23 61 C23 66.94 23 72.88 23 79 C38.18 79 53.36 79 69 79 C69 85.93 69 92.86 69 100 C46.23 100 23.46 100 0 100 C0 67 0 34 0 0 Z " fill="#0045FF" transform="translate(561,36)"/>
<path d="M0 0 C8.58 0 17.16 0 26 0 C26.90363281 1.67449219 27.80726563 3.34898438 28.73828125 5.07421875 C29.92962746 7.27867828 31.12103703 9.48310357 32.3125 11.6875 C32.90740234 12.79029297 33.50230469 13.89308594 34.11523438 15.02929688 C34.69208984 16.09599609 35.26894531 17.16269531 35.86328125 18.26171875 C36.39219971 19.24100342 36.92111816 20.22028809 37.46606445 21.22924805 C38.49644607 23.09042917 39.57448526 24.9259409 40.69604492 26.73364258 C42 29 42 29 42 31 C45.04846235 28.347549 46.84352275 25.06124168 48.79296875 21.58203125 C49.14386063 20.96478683 49.4947525 20.34754242 49.85627747 19.71159363 C50.971278 17.74779106 52.07946083 15.78023717 53.1875 13.8125 C53.94421425 12.47696005 54.70137081 11.14167062 55.45898438 9.80664062 C57.3119723 6.54107921 59.15568508 3.27052853 61 0 C69.91 0 78.82 0 88 0 C86.48179758 3.79550605 85.08629982 6.67696545 82.9453125 10.0703125 C82.33558594 11.04057373 81.72585938 12.01083496 81.09765625 13.01049805 C80.44667969 14.03828369 79.79570313 15.06606934 79.125 16.125 C78.12919922 17.71405151 78.12919922 17.71405151 77.11328125 19.33520508 C73.8924894 24.46622517 70.63922673 29.57100912 67.3046875 34.62890625 C66.74507324 35.48661621 66.18545898 36.34432617 65.60888672 37.22802734 C64.55808248 38.83437058 63.49507084 40.43281223 62.41845703 42.02197266 C61.95036621 42.74046387 61.48227539 43.45895508 61 44.19921875 C60.38125 45.12480591 60.38125 45.12480591 59.75 46.0690918 C58.69094346 48.79567976 59.11616314 50.2240633 60 53 C61.06935518 55.03407304 62.22295972 57.02476384 63.4296875 58.98046875 C63.94960518 59.83010193 63.94960518 59.83010193 64.48002625 60.69689941 C65.60481461 62.53142544 66.73983469 64.35938069 67.875 66.1875 C68.64908964 67.4465708 69.4224426 68.70609482 70.19506836 69.96606445 C72.10403733 73.07600009 74.02069006 76.18110797 75.94000244 79.28466797 C78.00987194 82.63421667 80.06998869 85.98973794 82.12744141 89.34692383 C83.06566443 90.8771627 84.0066338 92.405722 84.95068359 93.93237305 C88 98.88916227 88 98.88916227 88 100 C79.09 100 70.18 100 61 100 C59.86820313 98.01355469 58.73640625 96.02710938 57.5703125 93.98046875 C56.47177758 92.05413176 55.3728698 90.12800793 54.27392578 88.2019043 C53.51116563 86.86456176 52.7487925 85.52699841 51.98681641 84.18920898 C50.89066944 82.26487796 49.79312707 80.34134879 48.6953125 78.41796875 C48.3556546 77.82098679 48.0159967 77.22400482 47.66604614 76.6089325 C46.18165182 74.01106735 44.66081425 71.49122138 43 69 C39.59460401 73.70752408 36.75699679 78.31730678 34.51953125 83.69140625 C29.14556967 95.7835767 29.14556967 95.7835767 24 100 C15.3032115 102.6913637 5.85972335 101.36127693 -3 100 C0.64327435 93.16985798 4.44478018 86.5144716 8.625 80 C9.12918457 79.20182861 9.63336914 78.40365723 10.15283203 77.58129883 C12.88272705 73.26732302 15.66375139 68.99610363 18.515625 64.76171875 C19.07813965 63.91158203 19.6406543 63.06144531 20.22021484 62.18554688 C21.30248982 60.55175555 22.40123251 58.92872433 23.51806641 57.31835938 C24.24775635 56.20750977 24.24775635 56.20750977 24.9921875 55.07421875 C25.42901855 54.43057373 25.86584961 53.78692871 26.31591797 53.1237793 C27.35463883 49.89899958 26.3130127 48.06297683 25 45 C23.92745503 42.9822126 22.79678339 40.99463898 21.62109375 39.03515625 C20.95078125 37.91173828 20.28046875 36.78832031 19.58984375 35.63085938 C19.23776855 35.04715576 18.88569336 34.46345215 18.52294922 33.86206055 C17.42912507 32.04861525 16.34265292 30.23094098 15.2578125 28.41210938 C12.1791077 23.25708686 9.07854224 18.11582237 5.94140625 12.99609375 C5.51867432 12.30314209 5.09594238 11.61019043 4.66040039 10.89624023 C3.58256899 9.13492811 2.49481357 7.37969949 1.40625 5.625 C0 3 0 3 0 0 Z " fill="#0045FF" transform="translate(644,36)"/>
<path d="M0 0 C6.6 0 13.2 0 20 0 C25.66963398 14.39798616 31.0266866 28.89480725 36.3125 43.4375 C37.99117584 48.04984798 39.67105754 52.66175566 41.3515625 57.2734375 C41.75716904 58.38689041 42.16277557 59.50034332 42.58067322 60.64753723 C44.85008437 66.870498 47.13717598 73.08619221 49.4609375 79.2890625 C49.70452499 79.94026566 49.94811249 80.59146881 50.19908142 81.2624054 C51.26260492 84.10318676 52.33163827 86.94169452 53.40942383 89.77709961 C53.76286865 90.7181958 54.11631348 91.65929199 54.48046875 92.62890625 C54.77848389 93.41338135 55.07649902 94.19785645 55.38354492 95.00610352 C56 97 56 97 56 100 C48.08 100 40.16 100 32 100 C31.01 97.07125 30.02 94.1425 29 91.125 C28.68675781 90.20348145 28.37351562 89.28196289 28.05078125 88.33251953 C27.80714844 87.60661621 27.56351562 86.88071289 27.3125 86.1328125 C27.06113281 85.38918457 26.80976563 84.64555664 26.55078125 83.87939453 C26 82 26 82 26 80 C15.11 80 4.22 80 -7 80 C-7.66 82.97 -8.32 85.94 -9 89 C-10.32 92.63 -11.64 96.26 -13 100 C-20.92 100 -28.84 100 -37 100 C-35.20954703 94.03182342 -33.46875016 88.33399587 -31.29199219 82.54101562 C-31.03945175 81.86621155 -30.78691132 81.19140747 -30.52671814 80.49615479 C-29.70327131 78.29831614 -28.87516593 76.10226713 -28.046875 73.90625 C-27.46232777 72.34950265 -26.87804343 70.79265658 -26.29400635 69.23571777 C-25.07219414 65.98060663 -23.84824938 62.72630889 -22.62255859 59.47265625 C-21.07226531 55.35726246 -19.52569484 51.24048342 -17.98057175 47.12314606 C-16.48320918 43.13366576 -14.98382044 39.14494781 -13.484375 35.15625 C-13.20860374 34.4221138 -12.93283249 33.6879776 -12.64870453 32.93159485 C-8.5113735 21.92297919 -4.27660332 10.95533789 0 0 Z M9 32 C7.49500991 36.28993333 5.99685363 40.58222158 4.5 44.875 C3.85611328 46.70998047 3.85611328 46.70998047 3.19921875 48.58203125 C2.79316406 49.74863281 2.38710938 50.91523437 1.96875 52.1171875 C1.59169922 53.19597168 1.21464844 54.27475586 0.82617188 55.38623047 C-0.10046237 57.86096201 -0.10046237 57.86096201 0 60 C6.6 60 13.2 60 20 60 C17.03 50.76 14.06 41.52 11 32 C10.34 32 9.68 32 9 32 Z " fill="#0045FF" transform="translate(348,36)"/>
<path d="M0 0 C3.96 -0.0825 7.92 -0.165 12 -0.25 C13.84851562 -0.30462402 13.84851562 -0.30462402 15.734375 -0.36035156 C22.66770158 -0.42995426 27.12963278 0.23500981 33 4 C36.54711702 7.63579495 37.28578227 10.56629785 37.5 15.5 C37.31404504 20.38131771 36.39429287 23.3228494 33 27 C31.68739427 27.70660345 30.35641026 28.3816365 29 29 C29.48210937 29.74765625 29.96421875 30.4953125 30.4609375 31.265625 C31.09257813 32.25046875 31.72421875 33.2353125 32.375 34.25 C33.00148438 35.22453125 33.62796875 36.1990625 34.2734375 37.203125 C35.65134852 39.43521615 36.88312642 41.63087422 38 44 C34.45488924 44.71919255 31.51988479 44.92234941 28 44 C24.64870779 40.73971732 22.20985076 37.11106314 20 33 C20 32.34 20 31.68 20 31 C16.37 31 12.74 31 9 31 C9 35.29 9 39.58 9 44 C6.03 44 3.06 44 0 44 C0 29.48 0 14.96 0 0 Z M9 7 C9 12.61 9 18.22 9 24 C12.0628125 24.0928125 12.0628125 24.0928125 15.1875 24.1875 C16.91033203 24.23970703 16.91033203 24.23970703 18.66796875 24.29296875 C22.3044035 23.97323533 24.1105914 23.18158273 27 21 C28.54586876 17.90826248 28.29359521 15.40570448 28 12 C26.16678642 9.41992163 24.85252141 8.30088991 21.875 7.25 C17.5735574 6.87596151 13.31728983 6.94243614 9 7 Z " fill="#0045FF" transform="translate(1146,32)"/>
<path d="M0 0 C5.29534805 2.9489064 7.88299848 7.89899543 9.75 13.5 C10.80623219 30.62314874 10.80623219 30.62314874 6.75 36.5 C2.02277975 41.62868269 -1.55510578 44.14472171 -8.5 44.8125 C-14.41706193 44.31941151 -19.09752879 42.10587283 -23.125 37.6875 C-28.11430389 30.20354417 -28.21222544 21.66395898 -26.85546875 12.97265625 C-25.20282071 6.73524266 -21.52596356 3.07403983 -16.25 -0.5 C-10.77421337 -2.32526221 -5.34259653 -2.30127023 0 0 Z M-16.25 10.5 C-19.03079727 16.20642772 -19.23426195 22.51984584 -17.71484375 28.6640625 C-16.31723965 32.25353752 -14.80844574 34.91846856 -11.25 36.5 C-7.70421315 36.66025399 -7.70421315 36.66025399 -4.25 35.5 C0.17987166 30.95355277 0.92107614 27.98498495 1 21.75 C1.02578125 20.53828125 1.0515625 19.3265625 1.078125 18.078125 C0.72154799 14.18973758 -0.23211971 11.81719833 -2.25 8.5 C-7.50184053 4.64865028 -11.91047495 6.16047495 -16.25 10.5 Z " fill="#0045FF" transform="translate(982.25,32.5)"/>
<path d="M0 0 C10.56 0 21.12 0 32 0 C32 2.31 32 4.62 32 7 C24.41 7 16.82 7 9 7 C9 10.63 9 14.26 9 18 C15.93 18 22.86 18 30 18 C30 20.31 30 22.62 30 25 C23.07 25 16.14 25 9 25 C9 28.63 9 32.26 9 36 C16.92 36 24.84 36 33 36 C33 38.64 33 41.28 33 44 C22.11 44 11.22 44 0 44 C0 29.48 0 14.96 0 0 Z " fill="#0045FF" transform="translate(1058,32)"/>
<path d="M0 0 C1.23556641 0.01740234 1.23556641 0.01740234 2.49609375 0.03515625 C3.32238281 0.04417969 4.14867187 0.05320312 5 0.0625 C5.63808594 0.07410156 6.27617188 0.08570312 6.93359375 0.09765625 C8.67796691 3.82762092 10.41932427 7.55897582 12.15820312 11.29150391 C12.74694579 12.55423559 13.3364333 13.81662033 13.92675781 15.07861328 C17.15600763 21.9834768 20.33241132 28.90775749 23.36328125 35.90234375 C23.85812012 37.04429199 24.35295898 38.18624023 24.86279297 39.36279297 C25.93359375 42.09765625 25.93359375 42.09765625 25.93359375 44.09765625 C22.96359375 44.09765625 19.99359375 44.09765625 16.93359375 44.09765625 C12.93359375 36.34765625 12.93359375 36.34765625 12.93359375 34.09765625 C5.67359375 34.09765625 -1.58640625 34.09765625 -9.06640625 34.09765625 C-9.56140625 36.57265625 -9.56140625 36.57265625 -10.06640625 39.09765625 C-10.70077969 40.77688005 -11.35929947 42.44774043 -12.06640625 44.09765625 C-15.36640625 44.09765625 -18.66640625 44.09765625 -22.06640625 44.09765625 C-18.48217459 35.31336789 -14.67362935 26.64527882 -10.76269531 18.00268555 C-9.80103959 15.87617595 -8.84376864 13.74772646 -7.88671875 11.61914062 C-7.27499893 10.2642058 -6.66302949 8.90938363 -6.05078125 7.5546875 C-5.7653949 6.91940628 -5.48000854 6.28412506 -5.18597412 5.6295929 C-2.68854935 0.1270581 -2.68854935 0.1270581 0 0 Z M1.93359375 10.09765625 C-1.00674038 15.67531298 -3.59653539 20.95092354 -5.06640625 27.09765625 C-0.44640625 27.09765625 4.17359375 27.09765625 8.93359375 27.09765625 C8.09172672 22.88832112 7.04244912 19.68498546 5.37109375 15.78515625 C4.91605469 14.71652344 4.46101563 13.64789063 3.9921875 12.546875 C3.46818359 11.33451172 3.46818359 11.33451172 2.93359375 10.09765625 C2.60359375 10.09765625 2.27359375 10.09765625 1.93359375 10.09765625 Z " fill="#0045FF" transform="translate(1115.06640625,31.90234375)"/>
<path d="M0 0 C-0.33 2.31 -0.66 4.62 -1 7 C-4.72040554 8.24013518 -5.47297829 7.42218617 -9 6 C-11.79379278 5.72353614 -11.79379278 5.72353614 -14.625 5.8125 C-15.56601563 5.81894531 -16.50703125 5.82539062 -17.4765625 5.83203125 C-20.12600912 5.90171342 -20.12600912 5.90171342 -23 7 C-23 8.98 -23 10.96 -23 13 C-22.31035156 13.18175781 -21.62070313 13.36351563 -20.91015625 13.55078125 C-17.93414594 14.34683339 -14.96653594 15.16936994 -12 16 C-11.15566406 16.22816406 -10.31132813 16.45632812 -9.44140625 16.69140625 C-4.50228241 18.14898917 -0.94595878 19.53354637 2 24 C2.95531124 28.32829479 2.96310177 32.14840294 0.890625 36.1328125 C-2.44096094 40.41372131 -5.55926712 42.1700577 -11 43 C-18.7964501 43.78546326 -26.42946922 42.38035386 -33 38 C-32.125 33.25 -32.125 33.25 -31 31 C-28.40125125 31.44549979 -26.19408057 31.9057323 -23.8125 33.0625 C-18.72469522 34.75843493 -13.07600687 34.69200229 -8 33 C-7.67 31.02 -7.34 29.04 -7 27 C-7.68964844 26.81824219 -8.37929687 26.63648437 -9.08984375 26.44921875 C-12.0657991 25.65318131 -15.0325322 24.82706199 -18 24 C-18.84433594 23.7834375 -19.68867187 23.566875 -20.55859375 23.34375 C-26.1621799 21.75622475 -29.05343705 20.13272256 -32 15 C-32.78564128 10.67515919 -32.48904467 7.18400289 -30.8125 3.125 C-23.07803955 -5.94298811 -9.9100817 -4.1108487 0 0 Z " fill="#0045FF" transform="translate(1221,34)"/>
<path d="M0 0 C1.65 0 3.3 0 5 0 C5.33 1.32 5.66 2.64 6 4 C6.804375 3.34 7.60875 2.68 8.4375 2 C12.4682191 -0.67761718 16.30476653 -0.71394427 21 0 C24.35537627 1.34215051 26.45789202 2.45789202 29 5 C29.763125 4.360625 30.52625 3.72125 31.3125 3.0625 C35.95529169 -0.5005727 40.36140262 -0.52048591 46 0 C49.67269049 1.22423016 51.40409653 2.1660169 53.65234375 5.3125 C55.66218898 10.81190261 55.31520028 16.07282314 55.1875 21.875 C55.16719727 23.62296875 55.16719727 23.62296875 55.14648438 25.40625 C55.11125821 28.27131118 55.06199715 31.13541377 55 34 C53.35 34 51.7 34 50 34 C49.97494385 33.32420898 49.9498877 32.64841797 49.92407227 31.95214844 C49.80789258 28.8845832 49.68526563 25.81730842 49.5625 22.75 C49.52318359 21.68652344 49.48386719 20.62304688 49.44335938 19.52734375 C49.40146484 18.50253906 49.35957031 17.47773438 49.31640625 16.421875 C49.26141968 15.00793457 49.26141968 15.00793457 49.20532227 13.56542969 C49.01690217 11.21118675 48.85360979 9.20346805 48 7 C44.28040338 5.76013446 40.85833849 5.32309851 37 6 C33.47007356 8.70377344 31.79890494 10.68261989 31 15 C30.85870882 16.51270605 30.75537183 18.02928128 30.68359375 19.546875 C30.64169922 20.39121094 30.59980469 21.23554688 30.55664062 22.10546875 C30.51732422 22.97816406 30.47800781 23.85085937 30.4375 24.75 C30.39431641 25.63816406 30.35113281 26.52632812 30.30664062 27.44140625 C30.20086385 29.62745963 30.09877454 31.81362089 30 34 C28.35 34 26.7 34 25 34 C24.98018066 33.32420898 24.96036133 32.64841797 24.93994141 31.95214844 C24.84456762 28.88437956 24.73493835 25.81728002 24.625 22.75 C24.5940625 21.68652344 24.563125 20.62304688 24.53125 19.52734375 C24.49257812 18.50253906 24.45390625 17.47773438 24.4140625 16.421875 C24.36693115 15.00793457 24.36693115 15.00793457 24.31884766 13.56542969 C23.9896789 10.91695703 23.42935843 9.24150834 22 7 C18.84203893 5.42101947 15.39329364 5.18071829 12 6 C9.05349989 7.70621285 9.05349989 7.70621285 7 11 C6.24912242 14.93434413 6.20947576 18.81535352 6.1875 22.8125 C6.16236328 23.88693359 6.13722656 24.96136719 6.11132812 26.06835938 C6.05256705 28.71260771 6.01620624 31.35520488 6 34 C4.02 34 2.04 34 0 34 C0 22.78 0 11.56 0 0 Z " fill="#0045FF" transform="translate(1027,112)"/>
<path d="M0 0 C0.99 0.33 1.98 0.66 3 1 C3 58.42 3 115.84 3 175 C1.68 175 0.36 175 -1 175 C-1.02332658 152.33049041 -1.04097799 129.6609828 -1.05181217 106.99146366 C-1.05697564 96.46639162 -1.06401931 85.94132703 -1.07543945 75.41625977 C-1.08538473 66.24611403 -1.09185305 57.07597368 -1.09408849 47.90582269 C-1.09539587 43.04714856 -1.09848339 38.18848984 -1.10573006 33.32982063 C-1.11248782 28.76219426 -1.11461746 24.19458974 -1.11310768 19.62695885 C-1.11338412 17.94548041 -1.11539069 16.26400129 -1.11920547 14.58252716 C-1.12413892 12.29697986 -1.1229996 10.01151642 -1.12025452 7.72596741 C-1.12117631 6.44375337 -1.1220981 5.16153933 -1.12304783 3.84047031 C-1 1 -1 1 0 0 Z " fill="#0045FF" transform="translate(829,0)"/>
<path d="M0 0 C3.48951995 -0.59094619 6.53097673 -0.78788425 10 0 C12.8531005 2.73753568 14.40795293 5.97051435 16.125 9.5 C16.60453125 10.40621094 17.0840625 11.31242187 17.578125 12.24609375 C18.7547723 14.48172362 19.89217665 16.72969305 21 19 C24.10521068 15.28770319 26.70592755 11.39371385 29.1875 7.25 C32.88739669 1.11260331 32.88739669 1.11260331 34 0 C35.51928038 -0.07179964 37.04167482 -0.08392007 38.5625 -0.0625 C39.38878906 -0.05347656 40.21507812 -0.04445313 41.06640625 -0.03515625 C41.70449219 -0.02355469 42.34257813 -0.01195313 43 0 C40.36251252 5.06054508 37.72962191 10.04443274 34.41015625 14.6953125 C27.52883561 24.5158907 25.49586844 32.01946175 26 44 C23.03 44 20.06 44 17 44 C17.17015625 42.71996094 17.17015625 42.71996094 17.34375 41.4140625 C17.94919186 26.73209739 9.37931743 16.0230073 1.45288086 4.35986328 C0 2 0 2 0 0 Z " fill="#0045FF" transform="translate(1011,32)"/>
<path d="M0 0 C1.65 0 3.3 0 5 0 C5 15.51 5 31.02 5 47 C3.35 47 1.7 47 0 47 C-0.33 45.68 -0.66 44.36 -1 43 C-1.78375 43.66 -2.5675 44.32 -3.375 45 C-7.66710391 47.85801232 -12.02259679 47.65769928 -17 47 C-22.28097404 45.20646165 -24.79895251 42.39000798 -28 38 C-29.79973286 32.60080143 -29.70112627 27.06442735 -27.875 21.6875 C-24.99644284 17.56156808 -21.86637047 14.62212349 -17 13 C-11.23105563 12.4285998 -7.03101794 12.85561378 -2 16 C-1.67 16.33 -1.34 16.66 -1 17 C-0.67 11.39 -0.34 5.78 0 0 Z M-21 21 C-23.64703535 25.4999601 -24.52882662 29.06493583 -23.65234375 34.13671875 C-22.3343543 37.90127544 -19.48344038 40.25827981 -16 42 C-10.74720662 42.34444547 -7.17365376 42.57741751 -3 39 C0.08730697 34.67777025 0.41721191 31.21735014 -0.34765625 26.12109375 C-1.36708967 22.80640904 -3.31985219 21.09182268 -6 19 C-10.97882238 16.51058881 -16.93009722 17.39522897 -21 21 Z " fill="#0045FF" transform="translate(1533,99)"/>
<path d="M0 0 C25.48780488 0 25.48780488 0 32 5.5625 C35.9203228 10.34039341 35.58514519 15.00438184 35 21 C33.02375156 25.52890268 30.30119918 28.2234413 25.76953125 30.3203125 C19.36561286 31.89193704 12.54213331 31.26763273 6 31 C6 35.62 6 40.24 6 45 C4.02 45 2.04 45 0 45 C0 30.15 0 15.3 0 0 Z M6 5 C6 11.93 6 18.86 6 26 C8.536875 26.061875 11.07375 26.12375 13.6875 26.1875 C14.87218872 26.22846802 14.87218872 26.22846802 16.08081055 26.27026367 C20.62216306 26.32366433 23.40475224 25.79184044 27 23 C29.5290797 19.96510436 30 18.48112565 30 14.5 C28.80941856 10.33296496 27.3754116 8.6689301 24 6 C18.46543267 3.97023841 11.74733686 4.94678392 6 5 Z " fill="#0045FF" transform="translate(1104,101)"/>
<path d="M0 0 C4.95313071 3.3404835 7.24703999 7.05065995 8.6875 12.8125 C8.6875 14.4625 8.6875 16.1125 8.6875 17.8125 C-4.6775 18.3075 -4.6775 18.3075 -18.3125 18.8125 C-16.05010003 24.51599283 -16.05010003 24.51599283 -13.3984375 26.16796875 C-8.29316804 27.74543965 -3.63071697 27.36753873 1.25 25.3125 C2.054375 24.8175 2.85875 24.3225 3.6875 23.8125 C4.6775 25.1325 5.6675 26.4525 6.6875 27.8125 C1.2158785 32.39683153 -2.51119203 33.16781435 -9.51953125 33.09375 C-14.88450789 32.5535006 -18.02541816 30.20119356 -21.6875 26.25 C-24.94286109 21.36695837 -24.79173155 16.49228137 -24.3125 10.8125 C-22.51896165 5.53152596 -19.70250798 3.01354749 -15.3125 -0.1875 C-10.1060264 -1.9229912 -5.16315911 -1.85094383 0 0 Z M-17.3125 7.8125 C-17.9725 9.7925 -18.6325 11.7725 -19.3125 13.8125 C-12.0525 13.8125 -4.7925 13.8125 2.6875 13.8125 C2.25544609 8.07751393 2.25544609 8.07751393 -0.3125 5.4375 C-6.35760955 2.16306566 -12.64449629 2.437223 -17.3125 7.8125 Z " fill="#0045FF" transform="translate(1567.3125,113.1875)"/>
<path d="M0 0 C4.1796989 2.8497947 7.11864324 5.98092971 8.75 10.875 C8.75 13.185 8.75 15.495 8.75 17.875 C-0.16 17.875 -9.07 17.875 -18.25 17.875 C-15.69282219 23.62613384 -15.69282219 23.62613384 -11.25 26.875 C-8.80261739 27.34610255 -8.80261739 27.34610255 -6.25 27.25 C-5.404375 27.25773437 -4.55875 27.26546875 -3.6875 27.2734375 C-0.81634568 26.8041142 0.58441027 25.76989101 2.75 23.875 C4.07 24.535 5.39 25.195 6.75 25.875 C5.75147198 28.77073124 4.78905844 29.84765909 2.25 31.625 C-3.8345461 33.79805218 -9.66246965 33.90866558 -15.625 31.25 C-19.37714253 29.06693525 -21.39680499 26.87790123 -23.25 22.875 C-24.63114897 17.15857789 -24.72594834 12.06477409 -22.33984375 6.6328125 C-17.36139187 -1.3969486 -8.47104185 -2.93228372 0 0 Z M-17.25 7.875 C-17.58 9.855 -17.91 11.835 -18.25 13.875 C-10.99 13.875 -3.73 13.875 3.75 13.875 C1.78220819 7.38341277 1.78220819 7.38341277 -3.25 3.875 C-8.94310544 2.86243315 -13.35126986 3.24525796 -17.25 7.875 Z " fill="#0045FF" transform="translate(1288.25,113.125)"/>
<path d="M0 0 C4.3625175 2.27077045 6.85263976 4.94705774 8.99609375 9.31640625 C9.49109375 13.77140625 9.49109375 13.77140625 9.99609375 18.31640625 C-3.36890625 18.81140625 -3.36890625 18.81140625 -17.00390625 19.31640625 C-14.74150628 25.01989908 -14.74150628 25.01989908 -12.08984375 26.671875 C-6.98457429 28.2493459 -2.32212322 27.87144498 2.55859375 25.81640625 C3.36296875 25.32140625 4.16734375 24.82640625 4.99609375 24.31640625 C5.98609375 25.63640625 6.97609375 26.95640625 7.99609375 28.31640625 C2.52447225 32.90073778 -1.20259828 33.6717206 -8.2109375 33.59765625 C-13.57591414 33.05740685 -16.71682441 30.70509981 -20.37890625 26.75390625 C-23.63426734 21.87086462 -23.4831378 16.99618762 -23.00390625 11.31640625 C-21.2103679 6.03543221 -18.39391423 3.51745374 -14.00390625 0.31640625 C-9.40259088 -1.21736554 -4.65611133 -1.58834207 0 0 Z M-17.00390625 9.31640625 C-17.33390625 10.96640625 -17.66390625 12.61640625 -18.00390625 14.31640625 C-10.74390625 14.31640625 -3.48390625 14.31640625 3.99609375 14.31640625 C3.56403984 8.58142018 3.56403984 8.58142018 0.99609375 5.94140625 C-6.00673624 2.14820667 -11.84387584 3.51137204 -17.00390625 9.31640625 Z " fill="#0045FF" transform="translate(1253.00390625,112.68359375)"/>
<path d="M0 0 C4.3625175 2.27077045 6.85263976 4.94705774 8.99609375 9.31640625 C9.49109375 13.77140625 9.49109375 13.77140625 9.99609375 18.31640625 C0.75609375 18.31640625 -8.48390625 18.31640625 -18.00390625 18.31640625 C-15.0329364 24.7080743 -15.0329364 24.7080743 -10.00390625 27.31640625 C-4.29153273 28.11613854 0.02490919 27.37559675 4.99609375 24.31640625 C5.98609375 25.63640625 6.97609375 26.95640625 7.99609375 28.31640625 C2.65316533 32.60299638 -1.59300784 34.02823517 -8.45703125 33.66796875 C-13.49310697 32.97280492 -16.53096312 31.05790239 -19.81640625 27.31640625 C-23.55805411 22.18500347 -23.52258625 17.4637248 -23.00390625 11.31640625 C-21.2103679 6.03543221 -18.39391423 3.51745374 -14.00390625 0.31640625 C-9.40259088 -1.21736554 -4.65611133 -1.58834207 0 0 Z M-17.00390625 9.31640625 C-17.33390625 10.96640625 -17.66390625 12.61640625 -18.00390625 14.31640625 C-10.74390625 14.31640625 -3.48390625 14.31640625 3.99609375 14.31640625 C2.90988657 8.88537033 2.36962093 7.50543648 -2.00390625 4.31640625 C-8.56046288 2.80707001 -12.62731894 4.39274552 -17.00390625 9.31640625 Z " fill="#0045FF" transform="translate(1460.00390625,112.68359375)"/>
<path d="M0 0 C4.14040918 2.03388521 6.35520198 3.71661344 8 8 C8.22705078 10.84082031 8.22705078 10.84082031 8.1953125 14.078125 C8.18886719 15.23828125 8.18242188 16.3984375 8.17578125 17.59375 C8.15902344 18.8003125 8.14226562 20.006875 8.125 21.25 C8.11597656 22.47203125 8.10695313 23.6940625 8.09765625 24.953125 C8.07409513 27.96894782 8.04119706 30.98437492 8 34 C6.35 34 4.7 34 3 34 C2.67 33.01 2.34 32.02 2 31 C1.38125 31.495 0.7625 31.99 0.125 32.5 C-4.28252013 34.61560966 -8.18980117 34.7146142 -13 34 C-16.10875329 32.67035251 -18.45009711 31.09980578 -20 28 C-20.37387586 24.03691587 -20.38935825 21.70084485 -18.4375 18.1875 C-12.3700134 12.74231972 -4.69007167 13.77270724 3 14 C1.48134786 9.70111387 1.48134786 9.70111387 -1 6 C-2.60048202 5.87464348 -4.20715928 5.82425213 -5.8125 5.8125 C-6.68519531 5.79832031 -7.55789063 5.78414063 -8.45703125 5.76953125 C-11.13576857 6.01230468 -12.65358077 6.75546317 -15 8 C-15.99 8 -16.98 8 -18 8 C-18.33 6.68 -18.66 5.36 -19 4 C-12.64856907 0.16517378 -7.42054622 -1.13290782 0 0 Z M-13.98046875 20.35546875 C-15.21954604 22.03164649 -15.21954604 22.03164649 -15 24.5 C-14.16108318 27.14163034 -14.16108318 27.14163034 -11.875 28.875 C-8.04834504 30.37238672 -5.93890863 30.12540247 -2 29 C1.02230702 26.89498129 1.02230702 26.89498129 3 24 C3.17228094 21.38510996 3.17228094 21.38510996 3 19 C0.56183415 18.9190277 -1.87364384 18.85953028 -4.3125 18.8125 C-5.00279297 18.78736328 -5.69308594 18.76222656 -6.40429688 18.73632812 C-10.4304862 18.66337901 -10.4304862 18.66337901 -13.98046875 20.35546875 Z " fill="#0045FF" transform="translate(1491,112)"/>
<path d="M0 0 C3.77702297 2.63513231 6.60374735 5.7074947 8.6875 9.875 C9.1947965 15.43031248 9.45010422 20.29330236 7 25.375 C2.42278006 30.32334588 -1.18383445 32.97178916 -8 33.25 C-13.54707152 33.16902085 -17.28370271 31.70885548 -21.3125 27.875 C-24.50838337 23.64090593 -26.00223258 19.19859139 -25.69921875 13.890625 C-24.72316041 8.8032906 -22.47553406 4.9813007 -18.75 1.4375 C-13.0675805 -2.20507661 -6.267391 -2.12854789 0 0 Z M-18.3125 8.875 C-20.17483425 12.59966849 -19.88380829 16.81995313 -19.3125 20.875 C-17.6404253 24.00078143 -15.5268765 26.26781175 -12.3125 27.875 C-7.773281 28.41899285 -4.3580731 28.49789461 -0.375 26.125 C2.68593595 22.78579715 3.57802383 21.05734266 4 16.5 C3.58717789 11.71126355 2.20139986 8.62180753 -0.9375 5 C-7.89347474 1.7050646 -13.26181852 3.57178445 -18.3125 8.875 Z " fill="#0045FF" transform="translate(1180.3125,113.125)"/>
<path d="M0 0 C3.77702297 2.63513231 6.60374735 5.7074947 8.6875 9.875 C9.1947965 15.43031248 9.45010422 20.29330236 7 25.375 C2.42278006 30.32334588 -1.18383445 32.97178916 -8 33.25 C-13.54707152 33.16902085 -17.28370271 31.70885548 -21.3125 27.875 C-24.50838337 23.64090593 -26.00223258 19.19859139 -25.69921875 13.890625 C-24.72316041 8.8032906 -22.47553406 4.9813007 -18.75 1.4375 C-13.0675805 -2.20507661 -6.267391 -2.12854789 0 0 Z M-18.3125 8.875 C-20.17483425 12.59966849 -19.88380829 16.81995313 -19.3125 20.875 C-17.6404253 24.00078143 -15.5268765 26.26781175 -12.3125 27.875 C-7.773281 28.41899285 -4.3580731 28.49789461 -0.375 26.125 C2.68593595 22.78579715 3.57802383 21.05734266 4 16.5 C3.58717789 11.71126355 2.20139986 8.62180753 -0.9375 5 C-7.89347474 1.7050646 -13.26181852 3.57178445 -18.3125 8.875 Z " fill="#0045FF" transform="translate(1013.3125,113.125)"/>
<path d="M0 0 C4.39896208 2.36134761 7.75637854 5.44575335 9.6796875 10.09375 C10.50367319 17.30362482 10.09790587 22.21716457 5.9296875 28.28125 C1.01519786 32.95600844 -3.01373196 33.58748664 -9.5703125 33.4921875 C-14.58572092 33.06901241 -17.65917536 30.96279014 -20.8828125 27.28125 C-24.62446036 22.14984722 -24.5889925 17.42856855 -24.0703125 11.28125 C-22.27677415 6.00027596 -19.46032048 3.48229749 -15.0703125 0.28125 C-10.22916635 -1.33246538 -4.88419867 -1.69564633 0 0 Z M-17.0703125 8.28125 C-19.56248114 12.07368053 -19.27904987 15.77208427 -18.69140625 20.125 C-17.73244365 23.45422864 -15.71726398 25.16368882 -13.0703125 27.28125 C-12.7403125 27.61125 -12.4103125 27.94125 -12.0703125 28.28125 C-7.91540003 28.72764555 -4.15265049 28.65771539 -0.1953125 27.28125 C2.89123541 24.37626373 4.21630067 21.45010429 4.9296875 17.28125 C4.684252 13.03981772 3.62390547 10.12732815 0.9296875 6.84375 C-2.35409998 4.27829103 -4.7793455 3.93906321 -8.96875 4 C-12.44881734 4.46573392 -14.47944447 5.99881864 -17.0703125 8.28125 Z " fill="#0045FF" transform="translate(1379.0703125,112.71875)"/>
<path d="M0 0 C9.9 0 19.8 0 30 0 C30 1.65 30 3.3 30 5 C21.75 5 13.5 5 5 5 C5 10.28 5 15.56 5 21 C12.26 21 19.52 21 27 21 C27.33 22.65 27.66 24.3 28 26 C20.41 26 12.82 26 5 26 C5 32.27 5 38.54 5 45 C3.35 45 1.7 45 0 45 C0 30.15 0 15.3 0 0 Z " fill="#0045FF" transform="translate(936,101)"/>
<path d="M0 0 C5.94 0 11.88 0 18 0 C18 14.52 18 29.04 18 44 C15.03 44 12.06 44 9 44 C9 31.79 9 19.58 9 7 C6.03 7 3.06 7 0 7 C0 4.69 0 2.38 0 0 Z " fill="#0045FF" transform="translate(929,32)"/>
<path d="M0 0 C1.65 0 3.3 0 5 0 C5.33 1.32 5.66 2.64 6 4 C6.598125 3.525625 7.19625 3.05125 7.8125 2.5625 C12.22136428 -0.58668877 16.78475753 -0.49032194 22 0 C26.8299102 1.69941285 28.77389771 3.44224919 31 8 C31.34057617 10.9543457 31.34057617 10.9543457 31.29296875 14.17578125 C31.28330078 15.33271484 31.27363281 16.48964844 31.26367188 17.68164062 C31.23853516 18.87982422 31.21339844 20.07800781 31.1875 21.3125 C31.16719727 23.1387793 31.16719727 23.1387793 31.14648438 25.00195312 C31.11119261 28.00175345 31.06188481 31.00064975 31 34 C29.35 34 27.7 34 26 34 C25.97494385 33.32420898 25.9498877 32.64841797 25.92407227 31.95214844 C25.80789258 28.8845832 25.68526563 25.81730842 25.5625 22.75 C25.52318359 21.68652344 25.48386719 20.62304688 25.44335938 19.52734375 C25.40146484 18.50253906 25.35957031 17.47773438 25.31640625 16.421875 C25.27974854 15.47924805 25.24309082 14.53662109 25.20532227 13.56542969 C25.01690217 11.21118675 24.85360979 9.20346805 24 7 C21.32296769 6.1076559 19.40616916 5.74839658 16.625 5.625 C15.87476563 5.57601562 15.12453125 5.52703125 14.3515625 5.4765625 C10.49546333 6.33489687 9.27150247 7.77124951 7 11 C6.25163029 14.93492796 6.2094767 18.81518163 6.1875 22.8125 C6.16236328 23.88693359 6.13722656 24.96136719 6.11132812 26.06835938 C6.05256705 28.71260771 6.01620624 31.35520488 6 34 C4.02 34 2.04 34 0 34 C0 22.78 0 11.56 0 0 Z " fill="#0045FF" transform="translate(1194,112)"/>
<path d="M0 0 C1.98 0 3.96 0 6 0 C6 13.2 6 26.4 6 40 C13.92 40 21.84 40 30 40 C30 41.65 30 43.3 30 45 C20.1 45 10.2 45 0 45 C0 30.15 0 15.3 0 0 Z " fill="#0045FF" transform="translate(1408,101)"/>
<path d="M0 0 C1.65 0 3.3 0 5 0 C5 2.31 5 4.62 5 7 C8.3 7 11.6 7 15 7 C15 8.65 15 10.3 15 12 C11.7 12 8.4 12 5 12 C5.14037638 15.45863518 5.2870459 18.91680137 5.4375 22.375 C5.47681641 23.35984375 5.51613281 24.3446875 5.55664062 25.359375 C5.61948242 26.77089844 5.61948242 26.77089844 5.68359375 28.2109375 C5.72025146 29.08024902 5.75690918 29.94956055 5.79467773 30.84521484 C5.87401544 33.0483262 5.87401544 33.0483262 7 35 C9.97 35 12.94 35 16 35 C16.33 36.32 16.66 37.64 17 39 C13.29702456 41.46865029 10.29548969 41.56100937 6 41 C1.43055556 38.86111111 1.43055556 38.86111111 0 36 C-0.08471364 34.18658158 -0.10721083 32.37005839 -0.09765625 30.5546875 C-0.09443359 29.47832031 -0.09121094 28.40195313 -0.08789062 27.29296875 C-0.07951172 26.16503906 -0.07113281 25.03710938 -0.0625 23.875 C-0.05798828 22.73933594 -0.05347656 21.60367188 -0.04882812 20.43359375 C-0.03701615 17.62234362 -0.02054507 14.8111977 0 12 C-1.98 12 -3.96 12 -6 12 C-6 10.35 -6 8.7 -6 7 C-4.02 7 -2.04 7 0 7 C0 4.69 0 2.38 0 0 Z " fill="#0045FF" transform="translate(1338,105)"/>
<path d="M0 0 C1.32 0 2.64 0 4 0 C4.33 1.32 4.66 2.64 5 4 C5.86625 3.34 6.7325 2.68 7.625 2 C11.21423463 -0.12695385 12.92694798 -0.38790972 17 0 C17 1.65 17 3.3 17 5 C16.06027344 5.27263672 16.06027344 5.27263672 15.1015625 5.55078125 C13.87566406 5.92783203 13.87566406 5.92783203 12.625 6.3125 C11.40683594 6.67794922 11.40683594 6.67794922 10.1640625 7.05078125 C7.66815371 7.91368185 7.66815371 7.91368185 6 11 C5.63303819 13.51502177 5.63303819 13.51502177 5.5859375 16.32421875 C5.54726563 17.35224609 5.50859375 18.38027344 5.46875 19.43945312 C5.42234375 21.04723633 5.42234375 21.04723633 5.375 22.6875 C5.33632813 23.77095703 5.29765625 24.85441406 5.2578125 25.97070312 C5.16349491 28.64696467 5.07789995 31.32321843 5 34 C3.02 34 1.04 34 -1 34 C-1.02465288 29.31860746 -1.04283739 24.63725241 -1.05493164 19.95581055 C-1.05997157 18.36205386 -1.0668035 16.76830181 -1.07543945 15.17456055 C-1.08751999 12.88849747 -1.09323155 10.60249533 -1.09765625 8.31640625 C-1.10281754 7.59973282 -1.10797882 6.88305939 -1.11329651 6.14466858 C-1.11349263 4.42936328 -1.06192007 2.71418734 -1 1 C-0.67 0.67 -0.34 0.34 0 0 Z " fill="#0045FF" transform="translate(971,112)"/>
<path d="M0 0 C1.65 0 3.3 0 5 0 C5.33 1.32 5.66 2.64 6 4 C6.33 3.525625 6.66 3.05125 7 2.5625 C10.09813267 0.14208385 13.12026792 0.31801083 17 0 C17 1.65 17 3.3 17 5 C15.01432292 5.5859375 13.02864583 6.171875 11.04296875 6.7578125 C7.90416805 8.66629935 7.24969947 10.55570635 6 14 C5.52469663 17.45603757 5.39950161 20.88996396 5.3125 24.375 C5.27833984 25.30183594 5.24417969 26.22867188 5.20898438 27.18359375 C5.12700448 29.45560812 5.05769506 31.72726104 5 34 C3.35 34 1.7 34 0 34 C0 22.78 0 11.56 0 0 Z " fill="#0045FF" transform="translate(1302,112)"/>
<path d="M0 0 C1.65 0 3.3 0 5 0 C5.33 0.99 5.66 1.98 6 3 C6.886875 2.505 7.77375 2.01 8.6875 1.5 C11.87586238 0.05621326 13.58187546 -0.30159922 17 0 C17 1.65 17 3.3 17 5 C15.9275 5.226875 14.855 5.45375 13.75 5.6875 C9.33420075 7.23302974 8.32901197 7.98446212 6 12 C5.37605463 15.76638147 5.30365751 19.50037746 5.25 23.3125 C5.22035156 24.33923828 5.19070313 25.36597656 5.16015625 26.42382812 C5.08967806 28.94929675 5.0368734 31.47385415 5 34 C3.35 34 1.7 34 0 34 C0 22.78 0 11.56 0 0 Z " fill="#0045FF" transform="translate(1581,112)"/>
<path d="M0 0 C1.65 0 3.3 0 5 0 C5 11.22 5 22.44 5 34 C3.35 34 1.7 34 0 34 C0 22.78 0 11.56 0 0 Z " fill="#0045FF" transform="translate(1145,112)"/>
<path d="M0 0 C2.5 0.125 2.5 0.125 3.5 1.125 C3.54063832 2.79117115 3.542721 4.45888095 3.5 6.125 C-1.25 7.25 -1.25 7.25 -3.5 6.125 C-3.542721 4.45888095 -3.54063832 2.79117115 -3.5 1.125 C-2.5 0.125 -2.5 0.125 0 0 Z " fill="#0045FF" transform="translate(1147.5,98.875)"/>
</svg>
