<?xml version="1.0" encoding="UTF-8"?>
<svg version="1.1" xmlns="http://www.w3.org/2000/svg" width="800" height="182">
<path d="M0 0 C4.86393122 2.07708177 9.30912709 4.75337396 13.8125 7.5 C15.00469774 8.20509285 16.19805398 8.90823062 17.39257812 9.609375 C20.35571223 11.35609442 23.29633076 13.13727771 26.23199463 14.9296875 C28.02634918 16.01595123 29.83250057 17.07996735 31.64208984 18.140625 C32.8070932 18.83311964 33.97197427 19.52582004 35.13671875 20.21875 C36.16885498 20.82654297 37.20099121 21.43433594 38.2644043 22.06054688 C41.71606096 24.50766518 44.50903407 27.05306612 45.56640625 31.24609375 C45.55894529 35.43169101 45.3223511 38.17833619 42.625 41.5 C38.84859278 45.09657831 36.5778573 45.39758024 31.52246094 45.33886719 C27.00261229 44.7316711 23.46991643 42.46286376 19.625 40.125 C18.83222656 39.66480469 18.03945312 39.20460937 17.22265625 38.73046875 C14.08570985 36.89925638 11.02297686 35.0153179 8 33 C7.98541748 33.72590332 7.97083496 34.45180664 7.95581055 35.19970703 C7.88105141 38.50865732 7.7844821 41.81662952 7.6875 45.125 C7.66494141 46.26710937 7.64238281 47.40921875 7.61914062 48.5859375 C7.22774524 60.82593867 7.22774524 60.82593867 2.12109375 65.84765625 C-1.74447434 67.94773468 -5.73484437 67.62905861 -10 67 C-13.65188315 64.86973483 -15.4141395 62.86080385 -17 59 C-17.26742554 56.62319946 -17.26742554 56.62319946 -17.29052734 53.95947266 C-17.30328705 52.95808258 -17.31604675 51.9566925 -17.32919312 50.92495728 C-17.33141876 49.848862 -17.33364441 48.77276672 -17.3359375 47.6640625 C-17.3425943 46.55195404 -17.3492511 45.43984558 -17.35610962 44.29403687 C-17.36623193 41.94213515 -17.37092677 39.59020473 -17.37060547 37.23828125 C-17.37497525 33.64535024 -17.41129183 30.05365093 -17.44921875 26.4609375 C-17.45508767 24.17448336 -17.45905656 21.8880234 -17.4609375 19.6015625 C-17.47530853 18.52951569 -17.48967957 17.45746887 -17.50448608 16.35293579 C-17.46727357 10.25879209 -17.13828245 6.60069176 -13 2 C-8.61074029 -0.92617314 -5.14895724 -0.92376119 0 0 Z " fill="#28B5E8" transform="translate(117,115)"/>
<path d="M0 0 C4.16447303 2.34251608 5.51544742 4.56360774 7 9 C7.26069641 11.42112732 7.26069641 11.42112732 7.2746582 13.97045898 C7.28895622 15.41236855 7.28895622 15.41236855 7.30354309 16.88340759 C7.30263168 17.91059402 7.30172028 18.93778046 7.30078125 19.99609375 C7.30506638 21.06239517 7.3093515 22.12869659 7.31376648 23.22731018 C7.31950138 25.47908825 7.32001624 27.73088483 7.31567383 29.98266602 C7.31251451 33.42170916 7.33598211 36.85989131 7.36132812 40.29882812 C7.3636013 42.48958225 7.36430453 44.68033868 7.36328125 46.87109375 C7.372491 47.89625595 7.38170074 48.92141815 7.39118958 49.97764587 C7.35611914 55.40772364 7.08363265 59.32192206 4 64 C1.15937589 66.78169 -0.93039436 67.45084604 -4.875 67.5 C-8.50774201 67.39804712 -10.70957556 66.97398424 -13.5625 64.6875 C-17.04156162 60.85161155 -17.14545478 58.0259671 -17.31640625 53.01953125 C-17.35830078 51.85615234 -17.40019531 50.69277344 -17.44335938 49.49414062 C-17.48267578 48.27919922 -17.52199219 47.06425781 -17.5625 45.8125 C-17.62727539 43.97268555 -17.62727539 43.97268555 -17.69335938 42.09570312 C-17.7995309 39.06391619 -17.90157952 36.03204685 -18 33 C-18.589021 33.36351562 -19.17804199 33.72703125 -19.78491211 34.1015625 C-22.49033339 35.75518468 -25.21329025 37.37753303 -27.9375 39 C-28.86369141 39.57234375 -29.78988281 40.1446875 -30.74414062 40.734375 C-36.39867247 44.06757272 -41.34201171 46.53444172 -48 45 C-51.05681058 43.25059365 -53.39959179 41.20081643 -55 38 C-55.2734375 36.046875 -55.2734375 36.046875 -55.375 33.75 C-55.42398438 33.00234375 -55.47296875 32.2546875 -55.5234375 31.484375 C-54.5157057 26.70140914 -50.92195189 23.63772221 -47.05249023 20.96118164 C-45.98200439 20.36684326 -44.91151855 19.77250488 -43.80859375 19.16015625 C-43.22263931 18.83011093 -42.63668488 18.50006561 -42.03297424 18.16001892 C-40.17394803 17.11605237 -38.30626891 16.08890441 -36.4375 15.0625 C-34.60313663 14.03979324 -32.77069523 13.01369857 -30.93824768 11.98756409 C-29.73013417 11.3128145 -28.5204499 10.64086938 -27.30918884 9.9717865 C-22.3386106 7.2217859 -17.48063837 4.30207398 -12.6484375 1.31494141 C-8.43764693 -0.77570369 -4.55495774 -1.0530728 0 0 Z " fill="#28B5E8" transform="translate(76,115)"/>
<path d="M0 0 C2.06014526 1.04602626 4.03984681 2.1795235 6.02441406 3.36279297 C6.77601807 3.79744873 7.52762207 4.23210449 8.30200195 4.67993164 C9.98056909 5.65599918 11.65456506 6.6399564 13.32470703 7.63037109 C16.46307682 9.48572541 19.62051938 11.30634824 22.77832031 13.12841797 C25.04885948 14.45481912 27.3183984 15.78293403 29.58691406 17.11279297 C30.68310059 17.74644775 31.77928711 18.38010254 32.90869141 19.03295898 C34.44904053 19.94839478 34.44904053 19.94839478 36.02050781 20.88232422 C36.93759521 21.42091064 37.85468262 21.95949707 38.79956055 22.5144043 C42.02604437 24.966532 43.8232748 27.5843891 44.58300781 31.58154297 C44.58494141 32.67982422 44.58494141 32.67982422 44.58691406 33.80029297 C44.60625 34.53248047 44.62558594 35.26466797 44.64550781 36.01904297 C43.74077752 40.17937756 40.97614506 42.72448373 37.5625 45.10205078 C36.11278809 45.91947754 36.11278809 45.91947754 34.63378906 46.75341797 C33.55468262 47.36886475 32.47557617 47.98431152 31.36376953 48.6184082 C30.22053223 49.25593018 29.07729492 49.89345215 27.89941406 50.55029297 C26.71949539 51.21504019 25.53997237 51.88049017 24.36083984 52.54663086 C22.0293128 53.86276491 19.69517317 55.17383582 17.359375 56.48242188 C14.60038736 58.04489692 11.87249575 59.64399791 9.15722656 61.28076172 C8.08843262 61.91546387 8.08843262 61.91546387 6.99804688 62.56298828 C5.73197074 63.31661994 4.47274417 64.08195126 3.22265625 64.86181641 C-1.39295216 67.55931851 -4.65126651 67.79444316 -9.85058594 67.30029297 C-13.24563699 65.7600671 -15.36481748 63.10286695 -17.28808594 59.92529297 C-18.24452014 55.46193335 -17.80691898 51.85047797 -15.39746094 47.94482422 C-11.82085345 44.23107687 -7.70159389 41.98968099 -3.22558594 39.48779297 C-2.35417969 38.98570313 -1.48277344 38.48361328 -0.58496094 37.96630859 C5.85924612 34.30029297 5.85924612 34.30029297 8.14941406 34.30029297 C8.14941406 33.64029297 8.14941406 32.98029297 8.14941406 32.30029297 C7.49070312 32.05923828 6.83199219 31.81818359 6.15332031 31.56982422 C2.31823199 29.94901316 -1.274639 28.00544686 -4.91308594 25.98779297 C-5.62013672 25.60945313 -6.3271875 25.23111328 -7.05566406 24.84130859 C-11.2317637 22.52386739 -14.2021553 20.40536046 -16.85058594 16.30029297 C-17.97524646 12.17653772 -18.14226338 10.05865433 -16.60058594 6.05029297 C-12.68147285 -0.10831331 -7.40941918 -2.80150335 0 0 Z " fill="#28B5E8" transform="translate(17.8505859375,57.69970703125)"/>
<path d="M0 0 C4.16386418 2.3421736 5.53249865 4.55653317 7 9 C7.31884766 11.86254883 7.31884766 11.86254883 7.4140625 14.95703125 C7.45273438 16.06884766 7.49140625 17.18066406 7.53125 18.32617188 C7.5621875 19.47666016 7.593125 20.62714844 7.625 21.8125 C7.66367188 22.98232422 7.70234375 24.15214844 7.7421875 25.35742188 C7.8362513 28.23812564 7.92189877 31.11882654 8 34 C8.589021 33.63648438 9.17804199 33.27296875 9.78491211 32.8984375 C12.49033339 31.24481532 15.21329025 29.62246697 17.9375 28 C18.86369141 27.42765625 19.78988281 26.8553125 20.74414062 26.265625 C26.39867247 22.93242728 31.34201171 20.46555828 38 22 C41.05681058 23.74940635 43.39959179 25.79918357 45 29 C45.2734375 30.953125 45.2734375 30.953125 45.375 33.25 C45.42398438 33.99765625 45.47296875 34.7453125 45.5234375 35.515625 C44.5157057 40.29859086 40.92195189 43.36227779 37.05249023 46.03881836 C35.98200439 46.63315674 34.91151855 47.22749512 33.80859375 47.83984375 C33.22263931 48.16988907 32.63668488 48.49993439 32.03297424 48.83998108 C30.17394803 49.88394763 28.30626891 50.91109559 26.4375 51.9375 C24.60313663 52.96020676 22.77069523 53.98630143 20.93824768 55.01243591 C19.73013417 55.6871855 18.5204499 56.35913062 17.30918884 57.0282135 C12.3386106 59.7782141 7.48063837 62.69792602 2.6484375 65.68505859 C-1.55788246 67.77348405 -5.44965858 68.06035479 -10 67 C-13.65188315 64.86973483 -15.4141395 62.86080385 -17 59 C-17.26742554 56.62319946 -17.26742554 56.62319946 -17.29052734 53.95947266 C-17.30328705 52.95808258 -17.31604675 51.9566925 -17.32919312 50.92495728 C-17.33141876 49.848862 -17.33364441 48.77276672 -17.3359375 47.6640625 C-17.3425943 46.55195404 -17.3492511 45.43984558 -17.35610962 44.29403687 C-17.36623193 41.94213515 -17.37092677 39.59020473 -17.37060547 37.23828125 C-17.37497525 33.64535024 -17.41129183 30.05365093 -17.44921875 26.4609375 C-17.45508767 24.17448336 -17.45905656 21.8880234 -17.4609375 19.6015625 C-17.47530853 18.52951569 -17.48967957 17.45746887 -17.50448608 16.35293579 C-17.46727357 10.25879209 -17.13828245 6.60069176 -13 2 C-8.75259201 -0.83160532 -4.98653957 -0.64522317 0 0 Z " fill="#28B5E8" transform="translate(117,0)"/>
<path d="M0 0 C4.16447303 2.34251608 5.51544742 4.56360774 7 9 C7.26069641 11.42112732 7.26069641 11.42112732 7.2746582 13.97045898 C7.28895622 15.41236855 7.28895622 15.41236855 7.30354309 16.88340759 C7.30263168 17.91059402 7.30172028 18.93778046 7.30078125 19.99609375 C7.30506638 21.06239517 7.3093515 22.12869659 7.31376648 23.22731018 C7.31950138 25.47908825 7.32001624 27.73088483 7.31567383 29.98266602 C7.31251451 33.42170916 7.33598211 36.85989131 7.36132812 40.29882812 C7.3636013 42.48958225 7.36430453 44.68033868 7.36328125 46.87109375 C7.372491 47.89625595 7.38170074 48.92141815 7.39118958 49.97764587 C7.35635486 55.37122531 7.17656827 59.41721098 4 64 C1.25406932 66.65607923 -0.75823623 67.46618871 -4.55859375 67.5546875 C-11.03041428 67.34381727 -15.65495479 64.44496196 -21.0625 61.125 C-22.05749512 60.53581787 -23.05249023 59.94663574 -24.07763672 59.33959961 C-26.09689333 58.14239717 -28.11129833 56.93697145 -30.12060547 55.72314453 C-32.75756883 54.14508048 -35.41578531 52.6211773 -38.09765625 51.12109375 C-39.60678408 50.2682526 -41.11589951 49.41538952 -42.625 48.5625 C-43.3044165 48.18689941 -43.98383301 47.81129883 -44.68383789 47.42431641 C-49.57712595 44.59736017 -54.04903805 41.3563363 -55.6640625 35.65625 C-55.58895704 31.51042883 -55.28497593 28.79330354 -52.625 25.5 C-48.98444223 22.03280213 -46.69954311 21.53295569 -41.62939453 21.58984375 C-36.48159742 22.39284274 -32.30803561 25.29920972 -27.9375 28 C-26.97650391 28.57234375 -26.01550781 29.1446875 -25.02539062 29.734375 C-22.67248963 31.13909201 -20.33193511 32.56084103 -18 34 C-17.9906543 33.24380371 -17.98130859 32.48760742 -17.97167969 31.70849609 C-17.917808 28.26334866 -17.83419159 24.81953438 -17.75 21.375 C-17.73582031 20.18519531 -17.72164062 18.99539062 -17.70703125 17.76953125 C-17.39790666 6.70287099 -17.39790666 6.70287099 -13 2 C-8.75259201 -0.83160532 -4.98653957 -0.64522317 0 0 Z " fill="#28B4E8" transform="translate(76,0)"/>
<path d="M0 0 C3.71790679 1.68995763 5.83420135 3.56522637 8 7 C8.43359375 9.40234375 8.43359375 9.40234375 8.4375 11.9375 C8.45683594 12.77152344 8.47617188 13.60554688 8.49609375 14.46484375 C7.65986746 18.73815762 5.47773284 20.98700016 1.92260742 23.42407227 C-0.56288854 24.94744076 -3.080404 26.39018477 -5.625 27.8125 C-6.93210937 28.56563477 -6.93210937 28.56563477 -8.265625 29.33398438 C-14.70983206 33 -14.70983206 33 -17 33 C-17 33.66 -17 34.32 -17 35 C-16.35289062 35.22945312 -15.70578125 35.45890625 -15.0390625 35.6953125 C-10.95920787 37.44681822 -7.2030053 39.63437574 -3.375 41.875 C-2.611875 42.30941406 -1.84875 42.74382812 -1.0625 43.19140625 C6.18441721 47.42513157 6.18441721 47.42513157 8 51 C8.80407057 55.0605564 8.93064111 59.22072831 6.98046875 62.94921875 C3.97979798 66.69325811 1.58270368 67.81974213 -3.12109375 68.35546875 C-8.27340021 67.88330371 -11.65111373 65.89693965 -16.0625 63.3125 C-16.91650391 62.82571777 -17.77050781 62.33893555 -18.65039062 61.83740234 C-20.47961527 60.79000235 -22.30453542 59.73505555 -24.12548828 58.67333984 C-27.09233687 56.94624793 -30.07443048 55.24775216 -33.05859375 53.55078125 C-35.03999878 52.41047952 -37.02049026 51.2685887 -39 50.125 C-39.937229 49.59044189 -40.87445801 49.05588379 -41.84008789 48.50512695 C-50.40592526 43.48198469 -50.40592526 43.48198469 -53 39 C-53.53125 36.5 -53.53125 36.5 -53.5 34 C-53.5103125 33.175 -53.520625 32.35 -53.53125 31.5 C-52.61856668 27.20501969 -49.9487502 24.66079431 -46.41308594 22.19824219 C-45.44661133 21.65329102 -44.48013672 21.10833984 -43.484375 20.546875 C-42.40518799 19.93142822 -41.32600098 19.31598145 -40.21411133 18.68188477 C-39.07095459 18.04436279 -37.92779785 17.40684082 -36.75 16.75 C-35.57079929 16.085278 -34.39200871 15.41982792 -33.21362305 14.75366211 C-30.88295216 13.43729649 -28.54952615 12.12628974 -26.21435547 10.81787109 C-23.44511259 9.25173237 -20.70302743 7.65209516 -17.97265625 6.01953125 C-16.89709473 5.3848291 -16.89709473 5.3848291 -15.79980469 4.73730469 C-14.52186454 3.98184425 -13.24978625 3.21633029 -11.98535156 2.43847656 C-7.85449427 0.03801822 -4.7363988 -0.43887209 0 0 Z " fill="#28B4E8" transform="translate(174,57)"/>
<path d="M0 0 C7.34493927 4.98456181 12.92122532 12.97773846 14.81640625 21.71484375 C15.07972031 25.06965995 15.15607763 28.36385498 14.81640625 31.71484375 C13.81640625 32.71484375 13.81640625 32.71484375 11.57017517 32.83509827 C10.5775618 32.83287766 9.58494843 32.83065704 8.56225586 32.82836914 C7.44116928 32.82829361 6.3200827 32.82821808 5.1650238 32.82814026 C3.33536827 32.82039833 3.33536827 32.82039833 1.46875 32.8125 C0.22718643 32.81108505 -1.01437714 32.8096701 -2.29356384 32.80821228 C-5.59964866 32.80354966 -8.90566521 32.79455872 -12.21173096 32.7835083 C-15.58320525 32.77329202 -18.95468658 32.7687142 -22.32617188 32.76367188 C-28.9453315 32.7526177 -35.56445868 32.73586111 -42.18359375 32.71484375 C-41.57367002 34.48949228 -40.95474914 36.26105036 -40.33203125 38.03125 C-39.98833496 39.01810791 -39.64463867 40.00496582 -39.29052734 41.02172852 C-36.96593864 46.677339 -32.29230781 49.67135452 -27.18359375 52.71484375 C-20.49331241 54.81870581 -13.39286771 54.65440901 -6.99609375 51.77734375 C-2.29507368 49.19551368 0.73013056 45.76232097 3.9296875 41.5078125 C5.81640625 39.71484375 5.81640625 39.71484375 8.42578125 39.3515625 C10.81640625 39.71484375 10.81640625 39.71484375 12.75390625 41.33984375 C13.81640625 43.71484375 13.81640625 43.71484375 13.44140625 46.46484375 C9.19759939 54.95245748 1.9969306 61.14925335 -6.9765625 64.35546875 C-16.83029114 65.9599697 -27.43263233 65.82758495 -36.18359375 60.71484375 C-36.88742187 60.31394531 -37.59125 59.91304688 -38.31640625 59.5 C-45.18381928 54.99570818 -50.27189107 47.64635134 -52.62109375 39.77734375 C-54.38535877 30.1915038 -53.90680774 20.10578116 -48.9296875 11.5625 C-37.08968855 -5.24578189 -18.11154256 -10.65956619 0 0 Z M-38.18359375 14.71484375 C-40.42999136 17.80364046 -41.18359375 18.90811434 -41.18359375 22.71484375 C-26.33359375 22.71484375 -11.48359375 22.71484375 3.81640625 22.71484375 C0.50438648 14.98679761 -2.30764676 9.91449269 -10.015625 6.47265625 C-21.32461158 2.51960508 -30.22298095 6.23099818 -38.18359375 14.71484375 Z " fill="#28B4E8" transform="translate(760.18359375,61.28515625)"/>
<path d="M0 0 C3.109375 1.08203125 3.109375 1.08203125 4.18554688 2.59228516 C5.21081948 4.8252848 6.04883184 7.07473166 6.859375 9.39453125 C7.18228516 10.25723633 7.50519531 11.11994141 7.83789062 12.00878906 C8.95625171 15.02373049 10.03341345 18.05170761 11.109375 21.08203125 C11.78579773 22.95358302 12.46225612 24.82512222 13.13995361 26.69621277 C15.83587038 34.14435207 18.4852953 41.60826352 21.109375 49.08203125 C23.69121854 46.50018771 24.41738177 44.02879559 25.71875 40.61328125 C26.23072822 39.30688259 26.74378286 38.00090535 27.2578125 36.6953125 C28.06250214 34.63839215 28.86021036 32.57981634 29.63964844 30.51318359 C30.39573391 28.51713703 31.17961341 26.53395241 31.96875 24.55078125 C32.42733398 23.35904297 32.88591797 22.16730469 33.35839844 20.93945312 C35.109375 18.08203125 35.109375 18.08203125 38.30566406 16.67773438 C39.69350098 16.38286133 39.69350098 16.38286133 41.109375 16.08203125 C45.05470854 19.65301142 47.18596489 22.79382451 49.22265625 27.6953125 C49.48193405 28.30972702 49.74121185 28.92414154 50.00834656 29.55717468 C50.82443666 31.49835657 51.62334155 33.44607104 52.421875 35.39453125 C52.9760874 36.72117414 53.53141577 38.04735141 54.08789062 39.37304688 C55.44132157 42.60409611 56.7794472 45.84122559 58.109375 49.08203125 C61.07405645 42.23618996 63.79355235 35.33577641 66.3359375 28.32421875 C66.61298523 27.56280579 66.89003296 26.80139282 67.17547607 26.01690674 C68.32424319 22.85587471 69.47070117 19.69413292 70.60351562 16.52734375 C71.44288297 14.18545202 72.29458589 11.84836149 73.1484375 9.51171875 C73.4016275 8.7941037 73.6548175 8.07648865 73.91567993 7.33712769 C75.24471721 3.73074422 75.82002465 2.27493148 79.109375 0.08203125 C82.296875 0.45703125 82.296875 0.45703125 85.109375 1.08203125 C86.11803173 6.1728735 86.0678706 9.3980322 84.23510742 14.24511719 C83.80103073 15.41612976 83.36695404 16.58714233 82.91972351 17.79364014 C82.43521334 19.05140218 81.9502424 20.30898682 81.46484375 21.56640625 C80.97368458 22.87152988 80.48382138 24.1771419 79.99519348 25.48321533 C78.97140602 28.21013774 77.93755084 30.9329278 76.89526367 33.65283203 C75.56016581 37.13697749 74.2422657 40.62729419 72.93078136 44.12038803 C71.67680693 47.45864603 70.41515932 50.79398458 69.15234375 54.12890625 C68.91255484 54.76360588 68.67276592 55.39830551 68.42571068 56.05223846 C67.74526705 57.84859077 67.05868369 59.64261377 66.37182617 61.43652344 C65.98242355 62.45687683 65.59302094 63.47723022 65.19181824 64.52850342 C64.109375 67.08203125 64.109375 67.08203125 62.109375 70.08203125 C58.484375 70.26953125 58.484375 70.26953125 55.109375 70.08203125 C51.30696592 62.86609583 47.92280112 55.52359766 44.734375 48.01953125 C44.37666016 47.18639404 44.01894531 46.35325684 43.65039062 45.49487305 C43.31974609 44.70765869 42.98910156 43.92044434 42.6484375 43.109375 C42.35146973 42.40546631 42.05450195 41.70155762 41.74853516 40.97631836 C41.109375 39.08203125 41.109375 39.08203125 41.109375 36.08203125 C40.449375 36.08203125 39.789375 36.08203125 39.109375 36.08203125 C38.72007812 37.30921875 38.33078125 38.53640625 37.9296875 39.80078125 C35.91203529 45.85136697 33.45352874 51.70444916 30.984375 57.58203125 C30.52933594 58.67773438 30.07429688 59.7734375 29.60546875 60.90234375 C26.24007196 68.95133429 26.24007196 68.95133429 25.109375 70.08203125 C22.77640067 70.12296062 20.44232275 70.12444848 18.109375 70.08203125 C14.63367544 63.4815465 11.93031062 56.71326631 9.30859375 49.734375 C8.86796097 48.56370987 8.42732819 47.39304474 7.9733429 46.18690491 C7.0488677 43.72283231 6.12705546 41.25775915 5.20776367 38.79174805 C4.0335044 35.64396607 2.84042085 32.50367006 1.64302349 29.3646307 C0.49694808 26.34718968 -0.62689805 23.32147872 -1.75390625 20.296875 C-2.39903923 18.61693703 -2.39903923 18.61693703 -3.0572052 16.90306091 C-6.72976919 6.9084441 -6.72976919 6.9084441 -4.890625 1.08203125 C-2.890625 0.08203125 -2.890625 0.08203125 0 0 Z " fill="#28B5E8" transform="translate(411.890625,55.91796875)"/>
<path d="M0 0 C3.1875 2.25 3.1875 2.25 5 4 C5.66 1.69 6.32 -0.62 7 -3 C10.375 -3.625 10.375 -3.625 14 -4 C16.7655493 -1.2344507 16.25348601 0.38119787 16.25878906 4.25390625 C16.26509338 5.56866943 16.27139771 6.88343262 16.27789307 8.23803711 C16.2743134 9.6795261 16.27021146 11.12101387 16.265625 12.5625 C16.26697168 14.03458724 16.26891223 15.50667405 16.27142334 16.97875977 C16.27437449 20.06563548 16.27007732 23.15239553 16.26074219 26.23925781 C16.24934756 30.20072129 16.25590709 34.16191378 16.26788712 38.12336731 C16.275106 41.16363577 16.27281768 44.20383973 16.26763153 47.24411011 C16.26629511 48.7049869 16.2679425 50.1658695 16.27259064 51.6267395 C16.27765606 53.66652315 16.26856979 55.70632726 16.25878906 57.74609375 C16.25719788 58.90810303 16.25560669 60.0701123 16.25396729 61.26733398 C16 64 16 64 14 66 C11 66.25 11 66.25 8 66 C5.4345406 63.4345406 5.45953913 61.52313332 5 58 C4.49210938 58.40992188 3.98421875 58.81984375 3.4609375 59.2421875 C2.77257812 59.78101563 2.08421875 60.31984375 1.375 60.875 C0.70210937 61.40867187 0.02921875 61.94234375 -0.6640625 62.4921875 C-8.00781159 67.23246701 -16.61760908 66.67626859 -25 66 C-28.37566213 65.1277968 -31.0613731 63.85340784 -34 62 C-34.62132812 61.649375 -35.24265625 61.29875 -35.8828125 60.9375 C-43.18246119 56.38706965 -47.96615316 48.25502541 -50 40 C-52.05351969 28.63719102 -50.19020506 18.77920693 -44 9 C-33.32696772 -4.9947413 -15.30785908 -7.50186471 0 0 Z M-35.59375 15.87109375 C-39.94714081 22.46164372 -41.13567915 29.15944586 -40 37 C-37.66625959 44.41178667 -33.39208546 49.65844493 -27 54 C-21.16763402 56.79467536 -15.04326419 56.85071818 -8.9375 54.9375 C-2.48740496 52.20032804 1.60189982 47.51536565 4.4375 41.1875 C6.84110114 34.32006816 7.11715879 28.11028859 4.375 21.3125 C0.53691235 13.76959163 -3.50474168 9.45149505 -11.625 6.66015625 C-21.05145611 4.03997355 -29.77023622 8.4131504 -35.59375 15.87109375 Z " fill="#28B4E7" transform="translate(622,60)"/>
<path d="M0 0 C2.4375 0.75 2.4375 0.75 4.4375 2.75 C4.67800903 5.30630493 4.67800903 5.30630493 4.66455078 8.57666016 C4.66439972 9.79777496 4.66424866 11.01888977 4.66409302 12.27700806 C4.65387903 13.61436118 4.64344702 14.95171265 4.6328125 16.2890625 C4.6290828 17.65383701 4.62623563 19.01861419 4.62423706 20.38339233 C4.61659714 23.97720723 4.59694572 27.57086073 4.5748291 31.16461182 C4.55437832 34.83107317 4.545237 38.49756057 4.53515625 42.1640625 C4.51370003 49.35944862 4.47955992 56.5547017 4.4375 63.75 C9.5740552 59.36461076 14.44740605 54.83880253 19.1328125 49.9765625 C20.3548738 48.72728232 21.57754773 47.47860117 22.80078125 46.23046875 C24.69381379 44.29402029 26.58264191 42.35409157 28.46142578 40.40380859 C30.29879433 38.49985149 32.15168211 36.61220972 34.0078125 34.7265625 C34.56421417 34.14121735 35.12061584 33.55587219 35.69387817 32.95278931 C39.08807374 29.53569067 41.3952177 27.86860998 46.4375 27.75 C48.375 28.75 48.375 28.75 49.4375 30.75 C49.48563484 34.28572277 49.19984074 36.78624572 46.96362305 39.61328125 C44.97656185 41.57683151 42.92574956 43.42303737 40.8125 45.25 C39.40262795 46.50927798 37.99376679 47.76968869 36.5859375 49.03125 C35.89725586 49.64097656 35.20857422 50.25070313 34.49902344 50.87890625 C31.3648677 53.72354973 28.39274062 56.72125754 25.4375 59.75 C26.74403125 63.51858764 28.2739418 65.97821896 31 68.875 C34.97025721 73.19897103 38.7020952 77.66994697 42.3828125 82.2421875 C44.0319438 84.25500555 45.73327489 86.15603392 47.5 88.0625 C49.8035692 91.2577734 50.05116667 92.89266665 49.4375 96.75 C47.4375 98.75 47.4375 98.75 44.61328125 99.17578125 C40.39618015 98.61038885 39.3404382 97.15729819 36.625 93.9375 C35.76777344 92.93589844 34.91054688 91.93429688 34.02734375 90.90234375 C33.16206963 89.85320293 32.29876279 88.80243629 31.4375 87.75 C30.63441406 86.78191406 29.83132813 85.81382813 29.00390625 84.81640625 C27.49071431 82.97658941 25.98514128 81.13047242 24.48828125 79.27734375 C21.86623496 76.04598385 19.16273793 72.8945053 16.4375 69.75 C15.35231889 70.66447846 14.26945262 71.58170407 13.1875 72.5 C12.58421875 73.01046875 11.9809375 73.5209375 11.359375 74.046875 C10.72515625 74.60890625 10.0909375 75.1709375 9.4375 75.75 C8.71304688 76.29914063 7.98859375 76.84828125 7.2421875 77.4140625 C4.56346069 80.88133227 4.84115623 84.10522183 4.8125 88.375 C4.67736486 96.51013514 4.67736486 96.51013514 2.4375 98.75 C-0.5625 99 -0.5625 99 -3.5625 98.75 C-6.22030193 96.09219807 -5.81261179 94.11038308 -5.84466553 90.49455261 C-5.84218811 89.61656509 -5.83971069 88.73857758 -5.8371582 87.83398438 C-5.84226913 86.9103157 -5.84738007 85.98664703 -5.85264587 85.0349884 C-5.86658578 81.971177 -5.86558196 78.90758941 -5.86328125 75.84375 C-5.86716546 73.72147538 -5.87149955 71.59920153 -5.87626648 69.47692871 C-5.88373794 65.02479535 -5.88343049 60.57274127 -5.87817383 56.12060547 C-5.87237474 50.40361934 -5.88931645 44.68695671 -5.9125185 38.97002411 C-5.92721954 34.586386 -5.92813256 30.20282648 -5.92500877 25.81916809 C-5.92552371 23.71075296 -5.93079351 21.60233361 -5.94082069 19.49394226 C-5.95309904 16.55108341 -5.94644563 13.60886355 -5.93481445 10.66601562 C-5.94245819 9.78802811 -5.95010193 8.91004059 -5.95797729 8.00544739 C-5.9367218 5.58361816 -5.9367218 5.58361816 -5.5625 1.75 C-2.5625 -0.25 -2.5625 -0.25 0 0 Z " fill="#28B5E8" transform="translate(655.5625,27.25)"/>
<path d="M0 0 C9.44551684 6.62535539 14.29214814 14.17773404 16.4375 25.4375 C17.67195365 35.55052416 15.59361448 44.46088726 10 53 C4.71360974 59.55421833 -1.07849307 63.35949769 -9 66 C-20.50157048 66.78830989 -28.93696504 66.27540813 -38.1875 58.8125 C-45.99472534 51.5506896 -50.10336625 43.29962427 -50.9609375 32.70703125 C-51.10873161 22.4648994 -47.76319233 12.77752488 -40.8125 5.1875 C-29.59350592 -5.21959319 -13.44522831 -7.29266039 0 0 Z M-35.59375 15.8671875 C-39.76776548 22.19777765 -41.0025181 28.469722 -40 36 C-38.20771018 43.13715409 -34.9712547 48.62189065 -29 53 C-23.22862154 56.23844883 -17.39825204 56.93705562 -10.96484375 55.56640625 C-4.48392027 53.55594637 -0.01361055 49.54015306 3.32421875 43.671875 C6.288785 37.05621137 7.36018686 30.66131452 5.3046875 23.6171875 C2.33075607 16.24483647 -1.58411429 10.74709957 -9 7.5625 C-19.44908758 3.97062615 -28.78947619 7.16927145 -35.59375 15.8671875 Z " fill="#28B4E7" transform="translate(386,60)"/>
<path d="M0 0 C3.55830448 0.78109123 4.57607089 2.61964206 6.5625 5.5625 C7.09359375 5.28535156 7.6246875 5.00820313 8.171875 4.72265625 C9.23148437 4.17931641 9.23148437 4.17931641 10.3125 3.625 C11.00859375 3.26535156 11.7046875 2.90570313 12.421875 2.53515625 C18.94242461 -0.42764822 26.38247547 -0.31744657 33.1875 1.6875 C40.63107137 4.50185384 46.81796774 9.47981882 50.5625 16.5625 C52.91770908 22.09498834 52.85280208 27.23445399 52.828125 33.140625 C52.83099518 34.65230255 52.83099518 34.65230255 52.83392334 36.19451904 C52.8352801 38.31587983 52.83161931 40.43724907 52.82324219 42.55859375 C52.81249078 45.8152917 52.82317775 49.07144362 52.8359375 52.328125 C52.83461669 54.39062622 52.83205593 56.4531271 52.828125 58.515625 C52.83217346 59.49267395 52.83622192 60.4697229 52.84039307 61.47637939 C52.83408875 62.37781677 52.82778442 63.27925415 52.82128906 64.20800781 C52.81969788 65.00265442 52.81810669 65.79730103 52.81646729 66.61602783 C52.5625 68.5625 52.5625 68.5625 50.5625 70.5625 C47.5625 70.8125 47.5625 70.8125 44.5625 70.5625 C41.4460579 67.4460579 42.26404308 63.64479875 42.25390625 59.4609375 C42.228728 57.58984088 42.20333027 55.7187472 42.17773438 53.84765625 C42.14909097 50.8986093 42.12507754 47.94961402 42.10620117 45.00048828 C42.08441321 42.15368694 42.04494358 39.30751726 42.00390625 36.4609375 C42.00379044 35.58980316 42.00367462 34.71866882 42.0035553 33.82113647 C41.89127566 26.80249358 40.81978242 21.09506076 36 15.6875 C31.34302775 12.29851524 25.803102 11.15157294 20.12890625 11.87109375 C14.32294989 13.4474158 10.77316704 16.51716609 7.5625 21.5625 C6.6498667 24.3003999 6.42482401 25.97830145 6.38891602 28.80273438 C6.37542618 29.65371704 6.36193634 30.50469971 6.34803772 31.38146973 C6.33759933 32.29714722 6.32716095 33.21282471 6.31640625 34.15625 C6.28347939 36.09245263 6.25026756 38.02865044 6.21679688 39.96484375 C6.16930374 43.01966149 6.12484674 46.07445805 6.08569336 49.12939453 C6.04605332 52.07604986 5.99450219 55.02231079 5.94140625 57.96875 C5.9329921 58.88442749 5.92457794 59.80010498 5.91590881 60.74353027 C5.89094582 62.02000427 5.89094582 62.02000427 5.86547852 63.32226562 C5.85517105 64.07044556 5.84486359 64.81862549 5.83424377 65.58947754 C5.5625 67.5625 5.5625 67.5625 3.5625 70.5625 C0.0625 70.9375 0.0625 70.9375 -3.4375 70.5625 C-5.77141983 67.06162025 -5.69482486 65.6422139 -5.7121582 61.50219727 C-5.72169022 60.25402725 -5.73122223 59.00585724 -5.74104309 57.71986389 C-5.74078166 56.35621106 -5.7398446 54.99255821 -5.73828125 53.62890625 C-5.74216854 52.23029961 -5.74650328 50.83169414 -5.75126648 49.43309021 C-5.7587277 46.50182264 -5.75843824 43.57067552 -5.75317383 40.6394043 C-5.74738007 36.88545416 -5.76430781 33.13199755 -5.7875185 29.37812901 C-5.80226028 26.48961002 -5.80312696 23.60120977 -5.80000877 20.71265984 C-5.80052179 19.32878581 -5.80575601 17.9449051 -5.81582069 16.56106758 C-5.82817448 14.62481585 -5.81945274 12.68846442 -5.80981445 10.75219727 C-5.81044388 9.65094009 -5.8110733 8.54968292 -5.8117218 7.41505432 C-5.28125501 3.37150225 -4.09715863 0.94549815 0 0 Z " fill="#28B5E8" transform="translate(274.4375,55.4375)"/>
<path d="M0 0 C2.85295017 1.98073799 4.65014172 3.93078024 6.59375 6.80078125 C6.84375 9.61328125 6.84375 9.61328125 6.59375 11.80078125 C4.453125 13.01171875 4.453125 13.01171875 1.59375 13.80078125 C-1.203125 12.46484375 -1.203125 12.46484375 -4.15625 10.42578125 C-9.44724344 7.12378535 -13.21333148 5.42730229 -19.40625 6.80078125 C-22.76162627 8.14293176 -24.86414202 9.25867327 -27.40625 11.80078125 C-27.57306109 14.88425951 -27.57306109 14.88425951 -27.40625 17.80078125 C-21.99742598 20.63310464 -16.69882067 22.84020631 -10.90625 24.73828125 C-2.74302399 27.52824457 4.73378722 30.21923931 9.59375 37.80078125 C11.64000636 42.91642215 11.02192252 48.31775491 9.09375 53.36328125 C6.26103264 59.24970811 1.75191059 62.52258274 -4.21484375 64.9375 C-14.02405595 67.59090991 -24.42071244 66.44482171 -33.40625 61.80078125 C-36.01671303 60.28224342 -37.35773491 59.1261227 -39.40625 56.80078125 C-39.84375 53.55078125 -39.84375 53.55078125 -39.40625 50.80078125 C-38.40625 49.80078125 -38.40625 49.80078125 -35.84375 49.48828125 C-31.99155992 49.83848035 -29.66260855 50.96438761 -26.3359375 52.828125 C-20.58044395 55.72917337 -14.11964698 55.57752391 -8.09375 53.61328125 C-5.3526234 52.46168368 -4.3305666 51.71619392 -2.28125 49.42578125 C-1.16813202 46.8272388 -1.16813202 46.8272388 -1.96875 44.17578125 C-4.54411686 39.92082731 -7.90603692 38.43456577 -12.546875 37.00390625 C-13.53558594 36.68421875 -14.52429688 36.36453125 -15.54296875 36.03515625 C-17.59981625 35.38481049 -19.65970351 34.74399292 -21.72265625 34.11328125 C-28.37756106 31.93813726 -33.91892745 29.35248416 -38.40625 23.80078125 C-40.82659587 17.95584877 -40.95386385 12.72141198 -38.57421875 6.83984375 C-35.31298899 1.14632557 -30.1302561 -1.98032298 -23.9140625 -3.71875 C-14.77570327 -5.46955714 -8.23917834 -4.28570164 0 0 Z " fill="#28B5E8" transform="translate(249.40625,60.19921875)"/>
<path d="M0 0 C1.04542969 -0.00515625 2.09085938 -0.0103125 3.16796875 -0.015625 C5.8125 0.25 5.8125 0.25 7.8125 2.25 C7.23557692 8.82692308 7.23557692 8.82692308 5.8125 10.25 C3.00874729 10.74504462 0.19711189 11.15051198 -2.62109375 11.5546875 C-5.52169692 12.03841552 -5.52169692 12.03841552 -7.1875 15.25 C-7.6478764 18.44806665 -7.6478764 18.44806665 -7.8125 21.9375 C-7.88726563 23.11699219 -7.96203125 24.29648437 -8.0390625 25.51171875 C-8.08804688 26.41535156 -8.13703125 27.31898437 -8.1875 28.25 C-7.13949219 28.21519531 -7.13949219 28.21519531 -6.0703125 28.1796875 C-5.16023437 28.16164063 -4.25015625 28.14359375 -3.3125 28.125 C-1.95511719 28.09019531 -1.95511719 28.09019531 -0.5703125 28.0546875 C1.8125 28.25 1.8125 28.25 3.8125 30.25 C4.125 33.75 4.125 33.75 3.8125 37.25 C0.60869983 39.38586678 -0.20689967 39.48132175 -3.875 39.375 C-4.68324219 39.35695312 -5.49148438 39.33890625 -6.32421875 39.3203125 C-6.93910156 39.29710937 -7.55398438 39.27390625 -8.1875 39.25 C-8.17861755 39.94268982 -8.16973511 40.63537964 -8.1605835 41.34906006 C-8.07216617 48.55130776 -8.01178867 55.75340157 -7.96777344 62.95605469 C-7.949901 65.64504466 -7.92205525 68.33365826 -7.88574219 71.02246094 C-7.83728385 74.88487561 -7.81454374 78.74671208 -7.796875 82.609375 C-7.77622986 83.8136615 -7.75558472 85.017948 -7.73431396 86.25872803 C-7.73401184 87.37958801 -7.73370972 88.500448 -7.73339844 89.65527344 C-7.72451599 90.64122498 -7.71563354 91.62717651 -7.70648193 92.64300537 C-8.32428008 95.99131295 -9.52231046 97.19537202 -12.1875 99.25 C-14.8125 99.1875 -14.8125 99.1875 -17.1875 98.25 C-19.44529693 94.8633046 -19.43236783 93.73309149 -19.41455078 89.76879883 C-19.41432419 88.08739555 -19.41432419 88.08739555 -19.41409302 86.37202454 C-19.40377045 85.16257675 -19.39344788 83.95312897 -19.3828125 82.70703125 C-19.3799826 81.46829758 -19.37715271 80.2295639 -19.37423706 78.95329285 C-19.36493186 75.66361913 -19.34696791 72.37414137 -19.3248291 69.08453369 C-19.3043527 65.72630206 -19.29523152 62.36804172 -19.28515625 59.00976562 C-19.26308271 52.42310027 -19.22959522 45.83656617 -19.1875 39.25 C-20.4559375 39.27449219 -21.724375 39.29898438 -23.03125 39.32421875 C-25.84859511 39.37861871 -27.08325887 39.29951453 -29.6875 38.0625 C-31.1875 36.25 -31.1875 36.25 -31.625 33.75 C-31.10736863 30.79210645 -30.53904142 30.05527627 -28.1875 28.25 C-25.92578125 27.95703125 -25.92578125 27.95703125 -23.5 28.0625 C-22.69175781 28.08957031 -21.88351562 28.11664063 -21.05078125 28.14453125 C-20.43589844 28.17933594 -19.82101562 28.21414062 -19.1875 28.25 C-19.23970703 27.23292969 -19.23970703 27.23292969 -19.29296875 26.1953125 C-19.52899568 18.08048195 -18.98791179 10.78736226 -13.8125 4.25 C-9.31869522 0.82614874 -5.61525342 -0.02790188 0 0 Z " fill="#28B5E7" transform="translate(535.1875,27.75)"/>
<path d="M0 0 C3.03046535 1.96487489 5.46497567 4.44171857 8 7 C8.81597656 7.79148437 9.63195312 8.58296875 10.47265625 9.3984375 C18.00476601 16.77536908 18.00476601 16.77536908 18.5234375 23.83203125 C17.71060739 27.19860372 15.52150409 28.68489461 13 31 C11.98021484 32.02061291 10.96604559 33.0468624 9.95703125 34.078125 C8.90887692 35.13543923 7.86069962 36.19273067 6.8125 37.25 C6.27947266 37.79140625 5.74644531 38.3328125 5.19726562 38.890625 C0.38128097 43.73689886 0.38128097 43.73689886 -3.625 44.5 C-8.83232092 43.72854505 -11.32912537 40.58744566 -15 37 C-15.90234375 36.22785156 -16.8046875 35.45570312 -17.734375 34.66015625 C-18.64703125 33.84417969 -19.5596875 33.02820313 -20.5 32.1875 C-21.3559375 31.43855469 -22.211875 30.68960938 -23.09375 29.91796875 C-25.46017314 26.29559562 -25.85158288 23.86629668 -25.64941406 19.58374023 C-24.40460243 14.63116822 -20.82261514 11.7463915 -17.125 8.4375 C-16.00544922 7.37305664 -16.00544922 7.37305664 -14.86328125 6.28710938 C-7.19849498 -0.92883806 -7.19849498 -0.92883806 0 0 Z M-7.75 17.1875 C-10.25223925 19.73348081 -10.25223925 19.73348081 -10.0625 22.5625 C-8.78653366 25.4897169 -7.56680547 27.09323022 -5 29 C-2.12713227 29 -0.97857235 27.98378448 1.3125 26.25 C3.25 24.13541667 3.25 24.13541667 3 21.5 C1.80883865 18.52209662 0.50477535 16.98908631 -2 15 C-5.19435334 14.68873822 -5.19435334 14.68873822 -7.75 17.1875 Z " fill="#28B4E8" transform="translate(95,69)"/>
<path d="M0 0 C2.5906379 3.88595685 2.28066756 7.12438022 2.25878906 11.63061523 C2.2622937 12.51220306 2.26579834 13.39379089 2.26940918 14.30209351 C2.27822319 17.22100665 2.27237798 20.13967807 2.265625 23.05859375 C2.26697187 25.0849665 2.26891258 27.11133893 2.27142334 29.13771057 C2.27437426 33.38716708 2.27007842 37.63653957 2.26074219 41.88598633 C2.24935497 47.33476937 2.25590274 52.78335522 2.26788712 58.232131 C2.27511276 62.41768378 2.2728144 66.60318979 2.26763153 70.78874397 C2.26629661 72.79781174 2.26793724 74.80688375 2.27259064 76.81594658 C2.27766658 79.62407558 2.26993018 82.43188504 2.25878906 85.23999023 C2.26283752 86.0718132 2.26688599 86.90363617 2.27105713 87.76066589 C2.24257685 91.63327222 2.2189064 94.72405361 0 98 C-3.375 98.125 -3.375 98.125 -7 98 C-9.64222303 95.35777697 -9.25440756 93.41572995 -9.29327393 89.81912231 C-9.29236755 88.95205658 -9.29146118 88.08499084 -9.29052734 87.19165039 C-9.30060318 85.82318718 -9.30060318 85.82318718 -9.31088257 84.42707825 C-9.32993611 81.4005494 -9.33379038 78.3742414 -9.3359375 75.34765625 C-9.34236003 73.25019742 -9.34908797 71.1527395 -9.35610962 69.05528259 C-9.36810061 64.65442832 -9.37178854 60.25365266 -9.37060547 55.8527832 C-9.37040211 50.20531634 -9.39771343 44.55835178 -9.43214989 38.91100407 C-9.4543541 34.57793346 -9.45844501 30.24498501 -9.45738602 25.91186333 C-9.45975141 23.82938339 -9.46862732 21.74690056 -9.48405075 19.66447639 C-9.50358097 16.75520463 -9.49792402 13.84703248 -9.48583984 10.93774414 C-9.49707886 10.07270264 -9.50831787 9.20766113 -9.51989746 8.31640625 C-9.4583818 2.50753295 -9.4583818 2.50753295 -7.13369751 -0.06642151 C-4.30575967 -1.30375807 -2.87259201 -1.05832337 0 0 Z " fill="#28B5E8" transform="translate(561,28)"/>
<path d="M0 0 C3.2314209 1.54838918 4.46830264 2.72491095 5.84375 6.0234375 C6.9675206 9.94325638 7.36375161 13.02224172 5.875 16.875 C4.03504955 19.94158409 2.99001412 21.18254043 0 23 C-4.85723364 23.87667144 -8.83334278 23.71427993 -13.0625 21.125 C-16.63446209 17.20736416 -16.32661199 13.84098963 -16.29296875 8.70703125 C-15.90428228 5.11556825 -14.68553733 3.36959176 -12 1 C-8.28439694 -0.85780153 -4.05544636 -0.43428402 0 0 Z M-13 8 C-13.83333333 11.5 -13.83333333 11.5 -13 15 C-10.55401113 18.38121991 -9.10703441 19.76936783 -5 20.625 C-0.89296559 19.76936783 0.55401113 18.38121991 3 15 C3.83333333 11.5 3.83333333 11.5 3 8 C0.55401113 4.61878009 -0.89296559 3.23063217 -5 2.375 C-9.10703441 3.23063217 -10.55401113 4.61878009 -13 8 Z " fill="#28B5E8" transform="translate(793,45)"/>
<path d="M0 0 C7.75 -0.125 7.75 -0.125 10 1 C10 4.3 10 7.6 10 11 C6 10 6 10 5 9 C4.67 9.66 4.34 10.32 4 11 C2.68 11 1.36 11 0 11 C0 7.37 0 3.74 0 0 Z M4 3 C4 3.66 4 4.32 4 5 C4.66 5 5.32 5 6 5 C6 4.34 6 3.68 6 3 C5.34 3 4.68 3 4 3 Z " fill="#28B5E8" transform="translate(783,51)"/>
</svg>
