<?xml version="1.0" encoding="UTF-8"?>
<svg version="1.1" xmlns="http://www.w3.org/2000/svg" width="1072" height="200">
<path d="M0 0 C3.40118442 1.13372814 3.62637189 1.55963592 5.34765625 4.5078125 C5.78247314 5.2390332 6.21729004 5.97025391 6.6652832 6.72363281 C7.12636475 7.51608398 7.58744629 8.30853516 8.0625 9.125 C9.05483207 10.79053041 10.04966261 12.45457452 11.046875 14.1171875 C11.54509766 14.94831055 12.04332031 15.77943359 12.55664062 16.63574219 C14.551672 19.90365217 16.66305049 23.08229659 18.8125 26.25 C23.59372337 33.32226651 28.17432389 40.51494039 32.74389648 47.7253418 C35.96851144 52.81168074 39.20922219 57.88600866 42.49194336 62.93505859 C44.26441392 65.66150316 46.02740559 68.39400092 47.7890625 71.12744141 C48.57690731 72.34574174 49.36838897 73.56170047 50.1640625 74.77490234 C61.43003516 91.97422161 65.5831957 108.76215997 62.68359375 129.23388672 C61.87899472 133.0078858 60.55646442 136.47991655 59 140 C58.67257812 140.84949219 58.34515625 141.69898438 58.0078125 142.57421875 C51.93908299 156.68290742 38.0008067 168.30759429 24 174 C6.73229533 179.71620568 -10.95412702 179.45163968 -27.375 171.375 C-34.16754759 167.86110456 -39.70279157 163.54169497 -45 158 C-45.5465625 157.484375 -46.093125 156.96875 -46.65625 156.4375 C-50.46409659 152.5486354 -52.8017932 147.86923772 -55.25 143.0625 C-55.76264404 142.05981079 -55.76264404 142.05981079 -56.28564453 141.03686523 C-62.82534779 127.67886149 -63.17240022 110.75336104 -59.5 96.4375 C-55.83591619 85.75272414 -49.41779226 76.44978208 -43.13208008 67.16381836 C-39.33500715 61.55128108 -35.68940009 55.84868636 -32.0625 50.125 C-27.90351702 43.56441369 -23.73178534 37.01389296 -19.5 30.5 C-12.92772186 20.37953617 -6.46659295 10.18818897 0 0 Z M-4 63 C-4 67.95 -4 72.9 -4 78 C-8.62 78 -13.24 78 -18 78 C-18 81.3 -18 84.6 -18 88 C-13.38 88 -8.76 88 -4 88 C-4 92.62 -4 97.24 -4 102 C-0.7 102 2.6 102 6 102 C6 97.38 6 92.76 6 88 C10.62 88 15.24 88 20 88 C20 84.7 20 81.4 20 78 C15.38 78 10.76 78 6 78 C6 73.05 6 68.1 6 63 C2.7 63 -0.6 63 -4 63 Z M-18 116 C-18 119.3 -18 122.6 -18 126 C-5.46 126 7.08 126 20 126 C20 122.7 20 119.4 20 116 C7.46 116 -5.08 116 -18 116 Z M-18 136 C-18 139.3 -18 142.6 -18 146 C-5.46 146 7.08 146 20 146 C20 142.7 20 139.4 20 136 C7.46 136 -5.08 136 -18 136 Z " fill="#FFFFFF" transform="translate(1009,11)"/>
<path d="M0 0 C45.76849724 0 45.76849724 0 55.05078125 8.8125 C61.05469137 15.55035505 62.14867486 22.77826234 62.203125 31.57421875 C62.20882507 32.2980928 62.21452515 33.02196686 62.22039795 33.76777649 C62.22981404 35.29658564 62.2363684 36.82541478 62.24023438 38.35424805 C62.24989733 40.66297021 62.28093398 42.97078481 62.3125 45.27929688 C62.39952115 57.08194979 61.65364751 66.26525876 53.19140625 75.0859375 C38.7731639 87.67941121 17.43528147 82 0 82 C0 54.94 0 27.88 0 0 Z M21 19 C21 33.52 21 48.04 21 63 C32.87096765 64.1147408 32.87096765 64.1147408 37.75 60.75 C42.39333551 55.07481215 41.18367885 48.0819521 41.1875 41.0625 C41.20586914 39.29229492 41.20586914 39.29229492 41.22460938 37.48632812 C41.22654297 36.34744141 41.22847656 35.20855469 41.23046875 34.03515625 C41.23457764 32.9975415 41.23868652 31.95992676 41.24291992 30.89086914 C40.98028019 27.76532441 40.50565854 25.75220902 39 23 C33.37530495 17.64649406 33.37530495 17.64649406 21 19 Z " fill="#FFFFFF" transform="translate(479,26)"/>
<path d="M0 0 C5.61 0 11.22 0 17 0 C20.5669225 8.40005282 23.84984573 16.85226007 26.94140625 25.4375 C27.3952923 26.69205206 27.84939355 27.94652628 28.30369568 29.20092773 C29.24748042 31.80875999 30.18933737 34.41727694 31.12963867 37.02636719 C32.32217395 40.33514382 33.51859254 43.6424992 34.71635532 46.9493866 C35.65191746 49.53320796 36.58588919 52.11760194 37.5193615 54.70217896 C38.17006117 56.50341361 38.82165636 58.30432468 39.47328186 60.10522461 C42.09014524 67.37011825 44.58447376 74.66562813 47 82 C39.74 82 32.48 82 25 82 C21 72 21 72 21 70 C13.08 70 5.16 70 -3 70 C-3.99 73.63 -4.98 77.26 -6 81 C-7 82 -7 82 -9.13305664 82.11352539 C-10.04949951 82.10828857 -10.96594238 82.10305176 -11.91015625 82.09765625 C-12.89951172 82.09443359 -13.88886719 82.09121094 -14.90820312 82.08789062 C-15.94912109 82.07951172 -16.99003906 82.07113281 -18.0625 82.0625 C-19.10728516 82.05798828 -20.15207031 82.05347656 -21.22851562 82.04882812 C-23.81906936 82.03699911 -26.40949746 82.01967834 -29 82 C-26.69923134 73.89151955 -23.91095202 65.98579158 -21.03515625 58.06640625 C-20.55554794 56.73949972 -20.07617745 55.41250721 -19.59703064 54.08543396 C-18.34334694 50.61516806 -17.08642558 47.14608374 -15.82879639 43.67724609 C-14.55897731 40.17292978 -13.29234393 36.66746255 -12.02539062 33.16210938 C-8.02756741 22.10420446 -4.02064756 11.04962922 0 0 Z M9 34 C7.02 39.94 5.04 45.88 3 52 C6.96 52 10.92 52 15 52 C13.72520789 45.8221613 12.1079151 39.94432058 10 34 C9.67 34 9.34 34 9 34 Z " fill="#FFFFFF" transform="translate(602,26)"/>
<path d="M0 0 C5.61 0 11.22 0 17 0 C20.67778323 8.64382251 24.02654299 17.35788372 27.1953125 26.19921875 C27.67399433 27.52822535 28.15291163 28.85714715 28.63204956 30.18598938 C29.62713094 32.94764026 30.62027594 35.70997625 31.61181641 38.47290039 C32.87418546 41.9903892 34.14011585 45.50658253 35.40733528 49.02232647 C36.39318749 51.75796611 37.37783248 54.49403894 38.36205673 57.23026466 C38.82826983 58.52633909 39.29468744 59.82233997 39.76132584 61.11826134 C40.41507105 62.93480655 41.06717932 64.75194061 41.71923828 66.5690918 C42.27286545 68.11030952 42.27286545 68.11030952 42.837677 69.68266296 C44.27075065 73.77273799 45.62951053 77.8885316 47 82 C39.41 82 31.82 82 24 82 C23.01 78.04 22.02 74.08 21 70 C13.08 70.33 5.16 70.66 -3 71 C-4.32 74.63 -5.64 78.26 -7 82 C-14.26 82 -21.52 82 -29 82 C-27.28218509 76.2739503 -25.61178394 70.71322009 -23.59570312 65.11669922 C-23.3757518 64.50386078 -23.15580048 63.89102234 -22.92918396 63.25961304 C-22.21572417 61.27372134 -21.49855687 59.2891925 -20.78125 57.3046875 C-20.27684341 55.90332666 -19.77265646 54.50188674 -19.26867676 53.10037231 C-17.95047077 49.43662203 -16.62902282 45.77404919 -15.3069458 42.11169434 C-14.23215496 39.13258648 -13.15974004 36.15262608 -12.08744049 33.17262077 C-10.7987122 29.5913421 -9.5088617 26.01046802 -8.21875 22.4296875 C-7.9766127 21.7574905 -7.7344754 21.0852935 -7.48500061 20.3927269 C-5.0298887 13.57994977 -2.56579941 6.77204544 0 0 Z M9 34 C7.99600476 36.62353518 6.99665555 39.24867795 6 41.875 C5.71382812 42.62136719 5.42765625 43.36773437 5.1328125 44.13671875 C3.56663352 47.95985011 3.56663352 47.95985011 3 52 C6.96 52 10.92 52 15 52 C12.82056621 42.9068796 12.82056621 42.9068796 10 34 C9.67 34 9.34 34 9 34 Z " fill="#FFFFFF" transform="translate(787,26)"/>
<path d="M0 0 C20.13 0 40.26 0 61 0 C61 6.27 61 12.54 61 19 C54.4 19 47.8 19 41 19 C41 39.79 41 60.58 41 82 C34.07 82 27.14 82 20 82 C20 61.21 20 40.42 20 19 C13.4 19 6.8 19 0 19 C0 12.73 0 6.46 0 0 Z " fill="#FFFFFF" transform="translate(673,26)"/>
<path d="M0 0 C3.3 0 6.6 0 10 0 C12.79059204 2.82238284 14.43998144 4.94099241 16.42578125 8.265625 C16.98009323 9.12822937 17.53440521 9.99083374 18.10551453 10.87957764 C19.87513145 13.64984016 21.59394685 16.44783784 23.3125 19.25 C24.45440807 21.05806162 25.59956501 22.86407567 26.74804688 24.66796875 C28.9206486 28.08833884 31.07126908 31.52069842 33.2043457 34.96582031 C38.70307119 43.7074746 44.37175826 52.34116656 50 61 C50.33 40.87 50.66 20.74 51 0 C54.3 0 57.6 0 61 0 C61 27.06 61 54.12 61 82 C51 82 51 82 48.02319336 79.19970703 C47.17588158 77.90878628 46.36656052 76.59240034 45.58984375 75.2578125 C44.91346359 74.19677559 44.91346359 74.19677559 44.22341919 73.11430359 C42.76090929 70.80390244 41.35007533 68.46619764 39.9375 66.125 C38.93966047 64.5299227 37.93824721 62.93707571 36.93334961 61.34643555 C34.90630342 58.12965586 32.8971067 54.90279352 30.90136719 51.66650391 C27.53196182 46.22024626 24.03264985 40.86377252 20.50634766 35.51831055 C17.32176256 30.68925788 14.16334303 25.84299419 11 21 C10.67 41.13 10.34 61.26 10 82 C6.7 82 3.4 82 0 82 C0 54.94 0 27.88 0 0 Z " fill="#FFFFFF" transform="translate(268,26)"/>
<path d="M0 0 C3.3 0 6.6 0 10 0 C10.33 14.19 10.66 28.38 11 43 C24.52717424 27.33462735 24.52717424 27.33462735 36.93359375 10.78515625 C44.26625834 0.476433 44.26625834 0.476433 49.42578125 -0.94140625 C52.43825418 -0.93786633 55.07551721 -0.70000918 58 0 C56.57399345 3.11895029 54.85384269 5.59657812 52.6875 8.25 C51.98882812 9.11109375 51.29015625 9.9721875 50.5703125 10.859375 C49.7138723 11.90652051 48.85706327 12.9533644 48 14 C46.27913567 16.10545534 44.55925061 18.21169425 42.84106445 20.31933594 C41.66459192 21.76178654 40.48607409 23.20257164 39.30541992 24.64160156 C38.76248291 25.30643555 38.2195459 25.97126953 37.66015625 26.65625 C37.17168213 27.25244141 36.68320801 27.84863281 36.17993164 28.46289062 C34.91750427 30.00675667 34.91750427 30.00675667 34 32 C34.88356855 34.1089084 34.88356855 34.1089084 36.2890625 36.453125 C36.81266357 37.3723877 37.33626465 38.29165039 37.87573242 39.23876953 C38.45299072 40.23247559 39.03024902 41.22618164 39.625 42.25 C40.20805908 43.26819824 40.79111816 44.28639648 41.3918457 45.33544922 C46.12709146 53.57567733 50.95859191 61.76077021 55.85986328 69.90332031 C56.63112549 71.19254395 56.63112549 71.19254395 57.41796875 72.5078125 C57.86938232 73.25691895 58.3207959 74.00602539 58.78588867 74.77783203 C60 77 60 77 62 82 C58.04 82 54.08 82 50 82 C49.42894531 80.95585938 48.85789062 79.91171875 48.26953125 78.8359375 C43.29402243 69.78292836 38.20574767 60.79768209 33 51.875 C32.43643799 50.89708496 31.87287598 49.91916992 31.29223633 48.91162109 C30.76267334 48.01008301 30.23311035 47.10854492 29.6875 46.1796875 C28.98173828 44.96901611 28.98173828 44.96901611 28.26171875 43.73388672 C27.63716797 42.87561279 27.63716797 42.87561279 27 42 C24.91659428 41.76943669 24.91659428 41.76943669 23.59545898 43.34521484 C23.06766846 43.96090332 22.53987793 44.5765918 21.99609375 45.2109375 C21.42052734 45.87867188 20.84496094 46.54640625 20.25195312 47.234375 C19.65318359 47.94078125 19.05441406 48.6471875 18.4375 49.375 C17.83486328 50.07367188 17.23222656 50.77234375 16.61132812 51.4921875 C12.79546104 55.94617378 10.91378556 58.24157535 10.68359375 64.2265625 C10.64169922 65.2578125 10.59980469 66.2890625 10.55664062 67.3515625 C10.51732422 68.43179688 10.47800781 69.51203125 10.4375 70.625 C10.39431641 71.71296875 10.35113281 72.8009375 10.30664062 73.921875 C10.20035573 76.6144257 10.09965496 79.30719576 10 82 C6.7 82 3.4 82 0 82 C0 54.94 0 27.88 0 0 Z " fill="#FFFFFF" transform="translate(380,26)"/>
<path d="M0 0 C3.3 0 6.6 0 10 0 C10 11.88 10 23.76 10 36 C22.21 36 34.42 36 47 36 C47 24.12 47 12.24 47 0 C50.3 0 53.6 0 57 0 C57 27.06 57 54.12 57 82 C53.7 82 50.4 82 47 82 C47 69.79 47 57.58 47 45 C34.79 45 22.58 45 10 45 C10 57.21 10 69.42 10 82 C6.7 82 3.4 82 0 82 C0 54.94 0 27.88 0 0 Z " fill="#FFFFFF" transform="translate(99,26)"/>
<path d="M0 0 C18.48 0 36.96 0 56 0 C56 2.97 56 5.94 56 9 C48.41 9 40.82 9 33 9 C33 33.09 33 57.18 33 82 C29.7 82 26.4 82 23 82 C23 57.91 23 33.82 23 9 C15.41 9 7.82 9 0 9 C0 6.03 0 3.06 0 0 Z " fill="#FFFFFF" transform="translate(0,26)"/>
<path d="M0 0 C1.65 0 3.3 0 5 0 C5 66 5 132 5 200 C3.35 200 1.7 200 0 200 C0 134 0 68 0 0 Z " fill="#FFFFFF" transform="translate(891,0)"/>
<path d="M0 0 C3.3 0 6.6 0 10 0 C10 27.06 10 54.12 10 82 C6.7 82 3.4 82 0 82 C0 54.94 0 27.88 0 0 Z " fill="#FFFFFF" transform="translate(207,26)"/>
<path d="M0 0 C1.98 0 3.96 0 6 0 C8.31 9.24 10.62 18.48 13 28 C15.64 18.76 18.28 9.52 21 0 C22.98 0 24.96 0 27 0 C27.20681396 0.78238037 27.41362793 1.56476074 27.62670898 2.37084961 C28.56011974 5.89400996 29.49873732 9.41576211 30.4375 12.9375 C30.92573242 14.78504883 30.92573242 14.78504883 31.42382812 16.66992188 C31.73642578 17.83974609 32.04902344 19.00957031 32.37109375 20.21484375 C32.65911865 21.29886475 32.94714355 22.38288574 33.24389648 23.49975586 C33.76039211 25.91777602 33.76039211 25.91777602 35 27 C38.465 13.635 38.465 13.635 42 0 C43.98 0 45.96 0 48 0 C45.07569829 13.77862158 41.63221255 27.39194116 38 41 C36.02 41 34.04 41 32 41 C29.36 31.76 26.72 22.52 24 13 C22.865625 16.8775 21.73125 20.755 20.5625 24.75 C20.20615479 25.96655273 19.84980957 27.18310547 19.48266602 28.43652344 C19.20092529 29.40106445 18.91918457 30.36560547 18.62890625 31.359375 C18.34088135 32.34389648 18.05285645 33.32841797 17.75610352 34.34277344 C17.12688262 36.55408768 16.54006553 38.76556579 16 41 C14.02 41 12.04 41 10 41 C8.57112833 35.64439137 7.14709153 30.28752968 5.72753906 24.92944336 C5.24384431 23.10649845 4.75882535 21.28390438 4.27246094 19.46166992 C3.57399443 16.84384596 2.88028462 14.22480129 2.1875 11.60546875 C1.96876221 10.78974899 1.75002441 9.97402924 1.5246582 9.1335907 C0.70335378 6.01356344 0 3.24115177 0 0 Z " fill="#FFFFFF" transform="translate(481,133)"/>
<path d="M0 0 C3.5475 -0.04125 7.095 -0.0825 10.75 -0.125 C11.86213867 -0.14320801 12.97427734 -0.16141602 14.12011719 -0.18017578 C15.00344727 -0.1851709 15.88677734 -0.19016602 16.796875 -0.1953125 C17.69760742 -0.20578613 18.59833984 -0.21625977 19.52636719 -0.22705078 C22.18487614 0.01696948 23.75058782 0.58719186 26 2 C28.94102453 5.57124407 29.46602711 8.58778169 29.296875 13.0703125 C28.70548273 16.91436224 26.67394296 19.32605704 24 22 C23.01 22 22.02 22 21 22 C23.97 28.27 26.94 34.54 30 41 C27.69 41 25.38 41 23 41 C21.66180502 38.3773768 20.3292849 35.75213401 19 33.125 C18.6184375 32.37863281 18.236875 31.63226563 17.84375 30.86328125 C17.4828125 30.14785156 17.121875 29.43242187 16.75 28.6953125 C16.41484375 28.03547363 16.0796875 27.37563477 15.734375 26.69580078 C15 25 15 25 15 23 C12.03 23 9.06 23 6 23 C6 28.94 6 34.88 6 41 C4.02 41 2.04 41 0 41 C0 27.47 0 13.94 0 0 Z M6 4 C6 8.62 6 13.24 6 18 C8.248125 18.061875 10.49625 18.12375 12.8125 18.1875 C14.70935547 18.23970703 14.70935547 18.23970703 16.64453125 18.29296875 C19.93125609 18.29297498 19.93125609 18.29297498 21.8984375 16.640625 C23.40183853 14.40151708 23.80344997 12.68618377 24 10 C23.5 7.75 23.5 7.75 22 6 C18.27901148 4.14931503 15.31557462 3.77552832 11.1875 3.875 C8.6196875 3.936875 8.6196875 3.936875 6 4 Z " fill="#FFFFFF" transform="translate(651,133)"/>
<path d="M0 0 C4.03843343 2.60254599 6.29289779 5.25369336 7.8125 9.8125 C8.06705755 13.24555568 8.04380883 16.68348906 8.0625 20.125 C8.083125 21.06279297 8.10375 22.00058594 8.125 22.96679688 C8.15529873 28.34103372 7.89114269 32.19817502 4.8125 36.8125 C0.50393383 40.51987089 -3.55702244 42.07438268 -9.1875 41.8125 C-13.80401966 40.48231637 -17.11462034 38.64873563 -20.15112305 34.86157227 C-22.42072963 30.37422055 -21.85500152 25.22203047 -21.75 20.3125 C-21.76095703 19.19746094 -21.77191406 18.08242187 -21.78320312 16.93359375 C-21.72709842 10.65734779 -21.54295521 6.49696442 -17.1875 1.8125 C-11.33537335 -1.50002452 -6.36004118 -2.3694271 0 0 Z M-14.1875 6.8125 C-16.82464108 11.13596447 -16.59117364 15.25636798 -16.625 20.1875 C-16.65787109 21.02539062 -16.69074219 21.86328125 -16.72460938 22.7265625 C-16.76165316 27.01017117 -16.57310331 29.92525152 -13.84765625 33.34765625 C-10.78391267 36.18645537 -9.34555166 36.89912608 -5.1875 36.8125 C-1.62269623 35.48606139 -0.4041739 34.15618963 1.625 30.9375 C4.34159668 23.69838726 3.69948096 14.85954033 0.8125 7.8125 C-1.64791621 5.28558605 -3.19682517 3.9858681 -6.6875 3.375 C-9.80284165 3.92018479 -11.66807086 4.90590497 -14.1875 6.8125 Z " fill="#FFFFFF" transform="translate(594.1875,133.1875)"/>
<path d="M0 0 C1.65 0 3.3 0 5 0 C5.33 6.6 5.66 13.2 6 20 C8.29338486 17.23057311 10.58476804 14.45953223 12.875 11.6875 C13.52597656 10.90181641 14.17695312 10.11613281 14.84765625 9.30664062 C15.47285156 8.54931641 16.09804688 7.79199219 16.7421875 7.01171875 C17.60626221 5.96697388 17.60626221 5.96697388 18.48779297 4.90112305 C20.14950242 2.86657946 20.14950242 2.86657946 22 0 C25.625 -0.1875 25.625 -0.1875 29 0 C27.3718356 3.75730247 24.98598083 6.616823 22.375 9.75 C21.55773437 10.73484375 20.74046875 11.7196875 19.8984375 12.734375 C19.27195312 13.48203125 18.64546875 14.2296875 18 15 C19.28198327 18.38959367 20.74972036 21.46120254 22.6015625 24.57421875 C23.09140625 25.40630859 23.58125 26.23839844 24.0859375 27.09570312 C25.11916062 28.83566134 26.15302363 30.57523973 27.1875 32.31445312 C27.67476562 33.14267578 28.16203125 33.97089844 28.6640625 34.82421875 C29.11217285 35.57791748 29.5602832 36.33161621 30.02197266 37.1081543 C31 39 31 39 31 41 C28.26171875 41.38671875 28.26171875 41.38671875 25 41 C23.2357252 38.88966779 22.07865516 37.19328263 20.8125 34.8125 C20.48314453 34.23435547 20.15378906 33.65621094 19.81445312 33.06054688 C18.86069905 31.38247061 17.92996057 29.69137817 17 28 C16.42636719 27.07574219 15.85273437 26.15148437 15.26171875 25.19921875 C14 23 14 23 14 21 C13.236875 21.763125 12.47375 22.52625 11.6875 23.3125 C9 26 9 26 7.375 27.28125 C5.35698483 29.80376897 5.48363138 32.00445632 5.3125 35.1875 C5.24675781 36.27417969 5.18101562 37.36085937 5.11328125 38.48046875 C5.07589844 39.31191406 5.03851562 40.14335937 5 41 C3.35 41 1.7 41 0 41 C0 27.47 0 13.94 0 0 Z " fill="#FFFFFF" transform="translate(729,133)"/>
<path d="M0 0 C-0.66 1.32 -1.32 2.64 -2 4 C-6.75 3.125 -6.75 3.125 -9 2 C-12.56706674 1.73577283 -15.16072103 1.61264047 -18.4375 3.125 C-20.6260738 5.75128857 -20.29461899 7.68553637 -20 11 C-16.08923681 12.83057 -12.63379519 14.13309933 -8.375 14.875 C-5.27282381 15.54846389 -3.70504605 16.18660352 -0.9375 17.9375 C1.96271379 22.52170889 1.97566223 26.72507817 1 32 C-1.4056428 35.57201506 -3.26669511 36.6836724 -7.1875 38.375 C-13.2970743 39.37656956 -19.31253941 39.46658138 -24.625 35.9375 C-25.800625 34.9784375 -25.800625 34.9784375 -27 34 C-26.67 32.68 -26.34 31.36 -26 30 C-22 30 -22 30 -18.6875 31.5625 C-14.47474086 33.20476204 -12.32852898 33.16537319 -8 32 C-5.87129307 31.03882095 -5.87129307 31.03882095 -5 29 C-5.28302002 26.66003093 -5.61337867 24.32509774 -6 22 C-7.10859375 21.76925781 -8.2171875 21.53851563 -9.359375 21.30078125 C-10.82314523 20.97237126 -12.28667483 20.64288743 -13.75 20.3125 C-14.47960937 20.16361328 -15.20921875 20.01472656 -15.9609375 19.86132812 C-19.6776778 18.99972015 -21.64452502 18.33367699 -24.484375 15.66796875 C-26.8868405 11.43888645 -26.76972113 7.72717622 -26 3 C-24.22553637 -0.15460202 -22.84450384 -1.50737276 -19.75 -3.3125 C-11.85142308 -5.28714423 -7.00319145 -3.50159573 0 0 Z " fill="#FFFFFF" transform="translate(830,136)"/>
</svg>
