<svg width="218" height="68" viewBox="0 0 218 68" fill="none" xmlns="http://www.w3.org/2000/svg">
<g clip-path="url(#clip0_950_1248)">
<path d="M124.499 24.3582C127.019 26.5848 128.39 28.8684 128.673 32.2616C128.801 36.0021 128.162 38.7381 125.833 41.7388C123.68 43.9911 121.713 45.022 118.629 45.2673C115.575 45.3191 113.482 45.0777 110.779 43.6418C110.443 43.4744 110.108 43.3069 109.762 43.1344C109.75 43.4699 109.737 43.8054 109.724 44.1512C109.665 45.6625 109.602 47.1736 109.54 48.6847C109.52 49.213 109.5 49.7412 109.479 50.2854C109.458 50.7875 109.437 51.2896 109.415 51.8068C109.387 52.5044 109.387 52.5044 109.358 53.2161C109.254 54.2985 109.254 54.2985 108.746 54.806C107.73 54.8267 106.713 54.8276 105.697 54.806C105.111 53.6362 105.116 52.9461 105.099 51.644C105.092 51.2 105.086 50.756 105.079 50.2985C105.075 49.817 105.072 49.3355 105.068 48.8394C105.064 48.3436 105.06 47.8478 105.055 47.3369C105.048 46.285 105.043 45.233 105.039 44.181C105.03 42.5804 105.008 40.9804 104.985 39.3799C104.98 38.3571 104.976 37.3342 104.972 36.3114C104.964 35.836 104.955 35.3606 104.945 34.8709C104.958 30.9496 106.042 27.798 108.841 24.9609C113.522 20.5857 119.416 20.9799 124.499 24.3582Z" fill="#7DE7EB"/>
<path d="M12.1958 12.1791C13.4027 12.2426 13.4027 12.2426 14.7366 12.6866C16.2031 14.6839 16.8461 16.8765 17.5037 19.2321C17.6131 19.6143 17.7225 19.9965 17.8353 20.3903C18.065 21.1959 18.293 22.002 18.5192 22.8086C18.8636 24.0348 19.2144 25.2591 19.5661 26.4832C19.7894 27.2694 20.0124 28.0557 20.235 28.8422C20.3388 29.2044 20.4425 29.5666 20.5494 29.9398C21.1614 32.1348 21.5752 34.2749 21.8508 36.5374C22.1862 36.5374 22.5216 36.5374 22.8671 36.5374C22.911 36.2404 22.9549 35.9434 23.0001 35.6374C24.2503 28.009 26.7618 20.5906 28.965 13.1941C29.9712 13.0266 30.9773 12.8591 32.014 12.6866C33.2635 14.1769 33.8254 15.3883 34.265 17.2756C34.3847 17.775 34.5045 18.2744 34.6278 18.7889C34.7505 19.3185 34.8731 19.8481 34.9994 20.3937C35.2634 21.4909 35.5287 22.5877 35.7954 23.6843C35.9271 24.2262 36.0589 24.7682 36.1946 25.3266C36.7503 27.5462 37.3678 29.7444 38.0166 31.9385C38.1742 32.4778 38.1742 32.4778 38.3349 33.0281C38.7358 34.6625 38.7358 34.6625 39.6364 36.0299C41.3024 31.2386 42.6504 26.4026 43.9269 21.4958C45.5155 15.4767 45.5155 15.4767 46.7506 12.6866C48.0527 12.1474 48.0527 12.1474 49.2914 12.1791C49.7944 12.4303 49.7944 12.4303 50.3077 12.6866C50.192 16.2689 49.3504 19.3552 48.17 22.7099C47.195 25.5056 46.3117 28.3189 45.4722 31.1575C45.3607 31.5329 45.2492 31.9084 45.1343 32.2953C44.6802 33.8262 44.2268 35.3572 43.7822 36.8908C43.4665 37.9789 43.1448 39.065 42.8223 40.151C42.6368 40.7865 42.4513 41.422 42.2601 42.0767C41.7135 43.5239 41.3865 44.2694 40.1445 45.1642C39.1282 45.1642 39.1282 45.1642 38.1119 44.6568C36.6387 42.6315 36.1123 40.5317 35.6028 38.1232C35.4311 37.3532 35.2584 36.5834 35.0848 35.8138C34.9979 35.4268 34.911 35.0398 34.8215 34.6411C34.4133 32.8833 33.9482 31.1424 33.4749 29.4012C33.3085 28.7849 33.1422 28.1687 32.9707 27.5339C32.7487 26.7155 32.7487 26.7155 32.5221 25.8806C31.9572 23.795 31.5058 21.9743 31.5058 19.7911C31.1704 19.7911 30.835 19.7911 30.4895 19.7911C30.3922 20.5447 30.3922 20.5447 30.293 21.3135C29.9978 23.3705 29.547 25.3838 29.0603 27.403C28.9709 27.7763 28.8815 28.1495 28.7894 28.534C28.5125 29.6803 28.2316 30.8254 27.9487 31.9702C27.8627 32.3194 27.7766 32.6687 27.6879 33.0285C25.2974 42.6267 25.2974 42.6267 23.8834 44.6568C22.5475 45.0413 22.5475 45.0413 21.3426 45.1642C19.9257 43.0333 19.1386 40.8842 18.3572 38.4721C18.2256 38.0718 18.094 37.6715 17.9584 37.259C16.8186 33.7446 15.8191 30.1979 14.8557 26.6319C14.4316 25.0705 13.9802 23.5206 13.5059 21.9736C13.3877 21.586 13.2695 21.1985 13.1477 20.7992C12.9225 20.0656 12.694 19.333 12.4617 18.6016C11.8425 16.5746 11.5237 14.8058 11.6876 12.6866C11.8553 12.5191 12.023 12.3517 12.1958 12.1791Z" fill="#A7A7A7"/>
<path d="M94.5175 13.7016C96.1906 14.8704 97.4391 16.0481 98.5828 17.7613C98.3922 19.1251 98.3922 19.1251 98.0746 20.2986C97.2361 20.466 96.3977 20.6335 95.5338 20.806C94.9993 20.0996 94.9993 20.0996 94.454 19.3788C92.7794 17.4139 91.2627 16.3627 88.6141 16.114C85.9855 16.0535 83.754 16.1964 81.3054 17.2538C80.9213 19.3749 80.6056 21.1924 81.2419 23.2799C83.5059 25.5409 86.6612 25.8613 89.7217 26.3247C93.127 26.901 95.4486 28.2482 97.7888 30.765C99.3304 33.1051 99.3865 35.3462 99.0909 38.0598C98.377 40.891 97.004 42.3295 94.5493 43.8639C90.9196 45.9199 86.8054 46.2408 82.7227 45.4556C79.9071 44.5499 77.661 42.8 75.7156 40.5971C74.9534 38.8527 74.9534 38.8527 74.6993 37.5523C75.3345 36.7594 75.3345 36.7594 76.2238 36.0299C77.2083 36.0299 77.2083 36.0299 78.2564 36.5374C78.5499 36.9246 78.8433 37.3119 79.1457 37.7109C81.0186 39.9449 82.9691 40.9248 85.8669 41.3008C89.0549 41.4153 91.1192 41.2605 93.5012 39.0747C94.3196 37.4401 94.3151 35.7676 94.0093 34.0001C91.9747 31.4039 89.9599 30.4502 86.7681 29.9721C82.628 29.2454 79.9759 28.5596 77.3056 25.1809C75.7278 22.9183 75.9557 20.4274 76.2238 17.7613C77.628 14.7949 79.7485 13.4098 82.671 12.0523C86.9904 11.0757 90.704 11.4048 94.5175 13.7016Z" fill="#7DE7EB"/>
<path d="M66.0606 23.3433C68.8107 25.1389 70.4736 27.4114 71.6504 30.4478C71.8971 31.9361 71.8378 32.983 71.6504 34.5075C70.634 35.5224 70.634 35.5224 69.3991 35.6376C68.8935 35.6323 68.3879 35.627 67.867 35.6215C67.32 35.6182 66.773 35.615 66.2095 35.6116C65.6363 35.6031 65.0632 35.5946 64.4726 35.5858C63.8955 35.5812 63.3184 35.5767 62.7238 35.5719C61.2952 35.56 59.8668 35.5432 58.4382 35.5224C58.1206 34.0634 58.1206 34.0634 57.9301 32.4776C58.9464 31.4627 58.9464 31.4627 60.8242 31.3636C61.5746 31.3703 62.325 31.3824 63.0752 31.3993C63.4584 31.4038 63.8416 31.4084 64.2364 31.4131C65.1833 31.4251 66.1301 31.4433 67.0769 31.4627C65.4541 28.9624 64.3646 27.3459 61.4872 26.3881C58.6329 26.0527 57.0672 26.6854 54.7283 28.1721C53.4336 29.3016 52.933 30.3525 52.6957 32.0455C52.6787 35.2632 53.2704 37.2597 55.3893 39.7724C57.7034 41.0242 59.9261 40.9392 62.5035 40.597C63.9258 39.8556 63.9258 39.8556 65.0443 39.0746C66.4735 39.2332 66.4735 39.2332 67.5851 39.5821C67.8366 40.8381 67.8366 40.8381 68.0933 42.1194C64.8143 44.8482 62.845 45.4048 58.5693 45.3188C55.1559 45 53.1864 43.6323 50.8794 41.1679C48.5174 38.2396 48.0066 35.5924 48.0825 31.877C48.4876 28.8702 50.0408 26.4385 52.2768 24.4216C56.9151 21.2719 61.0517 21.0468 66.0606 23.3433Z" fill="#A7A7A7"/>
<path d="M151.576 23.6782C153.709 25.3428 155.496 27.4191 156.513 29.9403C156.63 31.2307 156.63 31.2307 156.608 32.5727C156.605 33.0195 156.602 33.4663 156.598 33.9266C156.513 35.0149 156.513 35.0149 156.005 35.5223C155.106 35.5728 154.205 35.5887 153.305 35.5897C152.759 35.5904 152.212 35.5911 151.65 35.5917C151.074 35.5898 150.499 35.5878 149.907 35.5858C149.332 35.5877 148.756 35.5897 148.164 35.5917C147.618 35.5911 147.071 35.5904 146.508 35.5897C145.751 35.5889 145.751 35.5889 144.978 35.588C143.809 35.5223 143.809 35.5223 143.301 35.0149C143.205 33.7779 143.205 33.7779 143.301 32.4776C144.747 31.0333 146.25 31.2313 148.192 31.1455C148.73 31.116 148.73 31.116 149.28 31.086C150.166 31.0382 151.053 30.9961 151.939 30.9552C150.327 28.3655 149.324 27.2944 146.35 26.388C144.19 26.1232 143.117 26.2227 141.173 27.2126C138.944 29.0924 137.85 30.5088 137.425 33.4291C137.551 35.8462 138.656 37.7954 140.252 39.582C142.558 41.0993 145.216 40.8735 147.874 40.597C149.324 39.8651 149.324 39.8651 150.415 39.0746C151.536 39.1989 152.155 39.2899 152.956 40.0895C153.178 41.263 153.178 41.263 152.956 42.6268C149.44 45.4359 146.132 45.5249 141.776 45.1641C138.629 44.3225 136.421 42.2733 134.662 39.582C132.969 36.1495 133.225 32.1552 134.122 28.513C135.684 26.1019 137.941 23.5075 140.706 22.477C144.409 21.9624 148.274 21.7193 151.576 23.6782Z" fill="#7DE7EB"/>
<path d="M118.909 25.8806C120.942 26.5956 122.245 27.6725 123.705 29.2426C124.779 31.5596 124.849 33.5167 124.499 36.0299C123.674 37.9233 122.494 39.2404 120.942 40.597C118.112 41.5389 115.336 41.5671 112.621 40.3116C110.482 38.3289 109.171 36.4305 109 33.4609C109.366 30.5811 110.47 29.1361 112.621 27.2444C114.688 25.7777 116.409 25.5601 118.909 25.8806Z" fill="#0F0F0F" fill-opacity="0.988235"/>
<path d="M175.315 21.3135C175.65 21.6484 175.985 21.9833 176.331 22.3284C176.14 23.6605 176.14 23.6605 175.823 24.8657C175.299 25.0018 174.775 25.1378 174.235 25.278C172.442 25.7853 170.869 26.5403 169.217 27.403C168.714 27.5705 168.211 27.7379 167.692 27.9105C167.091 29.1163 167.091 29.1163 166.676 30.4478C166.508 30.9502 166.341 31.4526 166.168 31.9702C166.11 32.8518 166.077 33.7352 166.061 34.6185C166.046 35.1333 166.032 35.6481 166.017 36.1785C165.991 37.2634 165.968 38.3484 165.949 39.4334C165.926 40.2057 165.926 40.2057 165.902 40.9935C165.887 41.7005 165.887 41.7005 165.871 42.4217C165.627 43.8312 165.237 44.2857 164.135 45.1642C163.297 44.8293 162.458 44.4943 161.594 44.1493C161.505 41.9717 161.451 39.7946 161.404 37.6157C161.378 37.0047 161.353 36.3937 161.326 35.7642C161.257 31.5124 161.901 28.6853 164.643 25.3732C165.981 24.1184 165.981 24.1184 167.248 23.3116C167.668 23.0336 168.089 22.7556 168.522 22.4691C170.776 21.2546 172.761 21.1718 175.315 21.3135Z" fill="#5CE1E6"/>
<path d="M195.641 21.3135C196.657 22.3284 196.657 22.3284 196.721 23.6605C196.7 24.0582 196.679 24.456 196.657 24.8657C196.16 24.9953 196.16 24.9953 195.653 25.1274C192.256 26.0681 189.62 26.9432 187.447 29.8749C186.002 32.4885 186.191 35.3039 186.177 38.2183C186.164 39.3159 186.147 40.4135 186.125 41.5109C186.122 41.9932 186.119 42.4755 186.116 42.9725C185.986 44.1493 185.986 44.1493 184.97 45.1642C182.655 44.8823 182.655 44.8823 181.921 44.1493C181.748 42.1347 181.755 40.1126 181.73 38.0915C181.702 37.2511 181.702 37.2511 181.673 36.3937C181.626 32.0255 182.441 28.5745 185.466 25.3011C188.46 22.4728 191.406 20.8989 195.641 21.3135Z" fill="#7DE7EB"/>
</g>
<defs>
<clipPath id="clip0_950_1248">
<rect width="218" height="68" fill="white"/>
</clipPath>
</defs>
</svg>
